<svg width="151" height="33" viewBox="0 0 151 33" fill="none" xmlns="http://www.w3.org/2000/svg">
<path d="M0.0234375 0.468031H10.8696C17.7927 0.468031 22.1773 6.08509 22.1773 13.8086C22.1773 18.0213 20.7926 21.766 18.0233 24.1064C16.1773 25.7447 13.6387 26.6808 10.408 26.6808H0.0234375V0.468031ZM10.0619 22.1171C15.0234 22.1171 16.8696 19.0745 16.8696 13.9255C16.8696 8.77664 14.6773 5.14891 10.1773 5.14891H5.21574V22.234H10.0619V22.1171ZM22.9849 17.3192C22.9849 11.7021 26.908 7.37231 32.6772 7.37231C38.4465 7.37231 42.3695 11.7021 42.3695 17.3192C42.3695 22.9361 38.4465 27.266 32.6772 27.266C26.908 27.266 22.9849 22.8192 22.9849 17.3192ZM37.2926 17.3192C37.2926 13.6915 35.5619 11.117 32.5618 11.117C29.5618 11.117 27.8311 13.5745 27.8311 17.3192C27.8311 21.0638 29.4465 23.4043 32.5618 23.4043C35.6772 23.4043 37.2926 20.9468 37.2926 17.3192ZM43.2926 17.3192C43.2926 11.7021 46.8695 7.37231 52.5234 7.37231C57.3694 7.37231 60.254 10.1808 60.9464 14.2766H56.1002C55.7541 12.6383 54.4849 11.3511 52.754 11.3511C49.7541 11.3511 48.2541 13.6915 48.2541 17.3192C48.2541 20.8298 49.6387 23.2872 52.6387 23.2872C54.6002 23.2872 55.9849 22.234 56.331 20.1276H61.1771C60.831 24.1064 57.831 27.266 52.8695 27.266C46.9849 27.149 43.2926 22.8192 43.2926 17.3192ZM74.1002 26.6808V24.4574H73.9848C72.7156 26.2128 71.331 27.149 68.6771 27.149C64.5233 27.149 62.2157 24.4574 62.2157 20.3617V7.84046H67.0617V19.5426C67.0617 21.766 67.9848 22.9361 70.1771 22.9361C72.4848 22.9361 73.8694 21.1809 73.8694 18.7234V7.84046H78.831V26.5639H74.1002V26.6808ZM102.716 0.585124H107.677V5.266H102.716V0.585124ZM102.716 7.84046H107.677V26.5639H102.716V7.84046ZM109.639 27.149H114.485C114.83 28.3191 115.985 29.2553 118.177 29.2553C120.946 29.2553 122.331 27.8511 122.331 25.3936V23.2872H122.215C121.178 24.5744 119.677 25.5106 117.369 25.5106C113.216 25.5106 109.177 22.234 109.177 16.5C109.177 10.8829 112.523 7.37231 117.138 7.37231C119.446 7.37231 121.178 8.30849 122.215 9.82979H122.331V7.84046H127.061V25.1595C127.061 27.8511 126.254 29.6063 124.869 30.8936C123.369 32.4149 120.946 33 118.177 33C113.331 33 110.216 30.8936 109.639 27.149ZM122.677 16.383C122.677 13.6915 121.176 11.3511 118.293 11.3511C115.754 11.3511 114.138 13.3404 114.138 16.5C114.138 19.6596 115.754 21.5319 118.293 21.5319C121.408 21.5319 122.677 19.1914 122.677 16.383ZM134.1 10.4149C135.484 8.42558 137.216 7.37231 139.638 7.37231C143.446 7.37231 145.984 10.2978 145.984 14.3936V26.6808H141.023V15.2128C141.023 13.2234 139.869 11.8191 137.792 11.8191C135.6 11.8191 133.984 13.5745 133.984 16.1489V26.7978H129.254V8.07442H134.1V10.4149ZM91.5232 10.8829C87.7155 10.0639 85.9848 9.36164 85.9848 7.25533C85.9848 5.38298 87.8309 4.21273 90.6001 4.21273C93.1386 4.21273 95.1002 5.38298 95.5617 7.84046H100.639C100.062 2.80853 96.3694 0 90.6001 0C84.831 0 80.6772 2.69143 80.6772 7.84046C80.6772 13.3404 84.9463 14.5107 89.5617 15.5638C93.4847 16.5 95.9078 16.968 95.9078 19.5426C95.9078 22 93.6002 22.9361 90.9463 22.9361C87.2541 22.9361 85.5232 21.6489 85.1771 18.4893H80.1002C80.331 23.9894 84.254 27.149 91.2925 27.149C97.0617 27.149 101.331 24.2234 101.331 18.8404C101.215 13.3404 96.8309 12.0532 91.5232 10.8829ZM148.061 11.3511C147.023 11.3511 146.1 10.4149 146.1 9.36164C146.1 8.30849 147.023 7.37231 148.061 7.37231C149.1 7.37231 150.023 8.30849 150.023 9.36164C150.023 10.4149 149.1 11.3511 148.061 11.3511ZM148.061 7.72337C147.139 7.72337 146.446 8.42558 146.446 9.36164C146.446 10.2978 147.139 11 148.061 11C148.984 11 149.677 10.2978 149.677 9.36164C149.677 8.42558 148.984 7.72337 148.061 7.72337Z" fill="white"/>
<path d="M147.371 8.30894H148.063C148.294 8.30894 148.524 8.30894 148.64 8.42592C148.756 8.5429 148.871 8.66 148.871 8.89396C148.871 9.24512 148.64 9.3621 148.524 9.47908L148.987 10.2983H148.524L148.179 9.59617H147.718V10.2983H147.371V8.30894ZM147.718 8.66V9.24512H148.063C148.179 9.24512 148.41 9.24512 148.41 8.89396C148.41 8.89396 148.41 8.66 148.294 8.66H147.718Z" fill="white"/>
</svg>
