<svg width="163" height="37" viewBox="0 0 163 37" fill="none" xmlns="http://www.w3.org/2000/svg">
<path fill-rule="evenodd" clip-rule="evenodd" d="M7.76891 9.96436C8.67325 8.9452 10.5479 7.46829 13.7866 7.46829C19.353 7.46829 23.096 11.9012 23.096 18.4998C23.096 24.9947 19.153 29.5291 13.5162 29.5291C10.8288 29.5291 9.10734 28.3717 8.20725 27.534C8.21363 27.7326 8.21789 27.955 8.21789 28.1925V37H2.45135V13.5336C2.45135 13.1924 2.34282 13.0845 2.00662 13.0845H0.0234375V7.94548H4.86222C7.0901 7.94548 7.66038 9.08555 7.76891 9.96436ZM12.6928 12.6482C10.4734 12.6482 8.10085 14.2159 8.10085 18.6185C8.10085 21.4147 9.51164 24.4312 12.6162 24.4312C14.9185 24.4312 17.2465 22.6239 17.2465 18.5776C17.2465 15.0299 15.4165 12.6482 12.6928 12.6482Z" fill="white"/>
<path d="M30.84 23.5054V11.0704C30.84 8.96948 29.842 7.94601 27.7972 7.94601H22.6434V13.0849H24.6288C24.9629 13.0849 25.0713 13.1951 25.0713 13.5341V25.9258C25.0713 28.0592 26.0374 29.0503 28.1078 29.0503H33.2679V23.9567H31.2826C30.9634 23.9567 30.84 23.8271 30.84 23.5054Z" fill="white"/>
<path fill-rule="evenodd" clip-rule="evenodd" d="M39.8842 9.96436C40.7927 8.9452 42.6632 7.46829 45.906 7.46829C51.4704 7.46829 55.2112 11.9012 55.2112 18.4998C55.2112 24.9947 51.2726 29.5291 45.6336 29.5291C42.9483 29.5291 41.2205 28.3717 40.3247 27.534C40.331 27.7326 40.3374 27.955 40.3374 28.1925V37H34.5666V13.5336C34.5666 13.1924 34.4581 13.0845 34.124 13.0845H32.1408V7.94548H36.9817C39.2096 7.94548 39.7778 9.08555 39.8842 9.96436ZM40.2161 18.6185C40.2161 21.4147 41.6333 24.4312 44.7293 24.4312C47.0381 24.4312 49.3639 22.6239 49.3639 18.5776C49.3639 15.0299 47.5338 12.6482 44.8102 12.6482C42.5887 12.6482 40.2161 14.2159 40.2161 18.6185Z" fill="white"/>
<path fill-rule="evenodd" clip-rule="evenodd" d="M55.5055 18.5008C55.5055 12.0058 59.8507 7.4693 66.064 7.4693C71.605 7.4693 75.3288 11.5027 75.3288 17.5054C75.3288 18.1143 75.216 19.3602 75.2053 19.412L75.1735 19.7963H61.4975C61.9977 22.6034 64.1127 24.3933 67.0024 24.3933C69.9103 24.3933 72.1355 22.4055 72.3074 22.252C72.3134 22.2465 72.3178 22.2427 72.3178 22.2427L72.6902 21.8843L75.2032 26.1142L74.9713 26.3475C74.8343 26.4819 71.7304 29.5301 66.6535 29.5301C60.1932 29.5301 55.5055 24.89 55.5055 18.5008ZM66.064 12.2088C63.9021 12.2088 62.3381 13.3834 61.7125 15.4542H69.3729C69.1367 13.5497 67.8003 12.2088 66.064 12.2088Z" fill="white"/>
<path fill-rule="evenodd" clip-rule="evenodd" d="M96.3048 3.1244V23.5054C96.3048 23.8271 96.4282 23.9567 96.7473 23.9567H98.6901V29.0503H93.6938C91.5361 29.0503 90.9552 27.8972 90.8383 26.986C89.9423 28.0311 88.1082 29.5295 84.927 29.5295C79.3605 29.5295 75.6197 25.0988 75.6197 18.5003C75.6197 12.0053 79.5243 7.46876 85.1206 7.46876C87.9826 7.46876 89.6445 8.4944 90.4957 9.27388V5.59023C90.4957 5.24908 90.3871 5.14112 90.053 5.14112H88.0677V0H93.2214C95.2939 0 96.3048 1.02347 96.3048 3.1244ZM81.5032 18.5003C81.5032 22.1018 83.2779 24.4317 86.0207 24.4317C88.2401 24.4317 90.6148 22.8662 90.6148 18.4614C90.6148 15.5659 89.2168 12.6487 86.0994 12.6487C83.3502 12.6487 81.5032 14.998 81.5032 18.5003Z" fill="white"/>
<path d="M111.523 7.66718C109.122 7.66718 106.914 9.07284 105.603 11.312V10.8304C105.603 8.91737 104.562 7.94572 102.52 7.94572H97.5616V13.0847H99.5449C99.8789 13.0847 99.9895 13.1926 99.9895 13.5337V29.05H105.756V20.6052C105.756 19.4933 105.897 18.4223 106.169 17.4312C107.037 14.5184 109.344 13.4819 111.21 13.4819C111.872 13.4819 112.353 13.5533 112.361 13.5554L112.842 13.6288V7.81185L112.491 7.75139C112.474 7.74708 111.984 7.66718 111.523 7.66718Z" fill="white"/>
<path d="M121.05 23.5055V11.0704C121.05 8.96952 120.057 7.94605 118.012 7.94605H113.35V13.085H114.839C115.176 13.085 115.282 13.1952 115.282 13.5342V25.9259C115.282 28.0592 116.25 29.0503 118.325 29.0503H123.48V23.9568H121.493C121.175 23.9568 121.05 23.8271 121.05 23.5055Z" fill="white"/>
<path d="M142.822 7.94605H139.745C137.947 7.94605 136.983 8.57871 136.412 10.1312L132.653 20.787C132.523 21.1821 132.401 21.6247 132.297 22.0501C132.189 21.6247 132.059 21.1756 131.916 20.7805L128.156 10.129C127.579 8.55927 126.647 7.94605 124.826 7.94605H121.553V13.085H122.402C122.853 13.085 122.998 13.2405 123.105 13.5256L128.924 29.0504H135.41L141.229 13.5256C141.336 13.2405 141.486 13.085 141.936 13.085H142.822V7.94605Z" fill="white"/>
<path fill-rule="evenodd" clip-rule="evenodd" d="M142.197 18.5008C142.197 12.0058 146.542 7.4693 152.753 7.4693C158.297 7.4693 162.023 11.5027 162.023 17.5054C162.023 18.1143 161.906 19.3602 161.901 19.412L161.868 19.7963H148.188C148.688 22.6034 150.803 24.3933 153.695 24.3933C156.695 24.3933 158.987 22.2621 159.006 22.2427L159.389 21.8843L161.896 26.1142L161.662 26.3475C161.532 26.477 158.425 29.5301 153.342 29.5301C146.882 29.5301 142.197 24.89 142.197 18.5008ZM152.753 12.2088C150.593 12.2088 149.035 13.3834 148.403 15.4542H156.063C155.827 13.5497 154.493 12.2088 152.753 12.2088Z" fill="white"/>
<path d="M30.4462 0.00140175H25.3053V5.49663H30.4462V0.00140175Z" fill="white"/>
<path d="M120.659 0.00140175H115.517V5.49663H120.659V0.00140175Z" fill="white"/>
</svg>
