<svg width="166" height="26" viewBox="0 0 166 26" fill="none" xmlns="http://www.w3.org/2000/svg">
<path d="M12.45 0.284464C19.3113 0.284464 24.9 6.03063 24.9 13.1422C24.9 20.2538 19.3113 26 12.45 26C5.58867 26 0 20.3107 0 13.1422C0 5.97374 5.58867 0.284464 12.45 0.284464ZM110.058 0V22.5295C110.058 24.2363 110.722 24.6915 111.995 25.0328L112.05 25.3173H105.023V22.5295C104.193 24.5777 102.477 25.8293 100.264 25.8293C96.5013 25.8293 94.0113 22.302 94.0113 17.0678C94.0113 14.1094 94.8413 11.6061 96.3907 9.72867C97.8847 7.9081 99.932 6.94092 102.201 6.94092C103.307 6.94092 104.248 7.16849 105.023 7.68053V4.60831C105.023 3.9256 104.857 3.47046 104.525 3.1291C104.082 2.73085 103.363 2.56018 102.256 2.67396H102.201V2.3895L110.058 0ZM136.729 6.99781V22.5295C136.729 24.2363 137.393 24.6915 138.665 25.0328V25.3173H131.638V22.4726C130.808 24.5208 128.982 25.8293 126.935 25.8293C124.5 25.8293 122.951 24.6915 122.342 22.4726L122.231 21.9037C122.121 21.3348 122.065 20.7659 122.065 20.1969V11.8906C122.065 10.07 121.678 9.50109 120.129 9.38731H120.073V9.10285L127.101 6.99781V20.0832C127.101 22.0175 127.931 23.0985 129.48 23.0985C130.421 23.0985 131.195 22.5864 131.638 21.733V11.8906C131.638 10.0131 131.306 9.4442 130.033 9.33042H129.978V9.04595L136.729 6.99781ZM85.988 6.94092C87.8693 6.94092 89.6953 7.62363 90.9127 8.81838C92.296 10.1838 93.0153 12.1751 93.0707 14.7921V14.849H82.502C82.2807 18.6039 84.5493 21.6761 87.5373 21.7899C89.6953 21.9606 91.5767 20.5952 92.628 18.3764L92.9047 18.4902C92.296 22.6433 89.9167 25.7724 85.7667 25.7724C81.0633 25.7724 78.4073 21.733 78.2967 16.6696V15.3611C78.518 13.1422 79.182 11.151 80.344 9.67177C81.0633 8.76149 81.8933 8.07877 82.8893 7.62363C83.7193 7.16849 84.9367 6.94092 85.9327 6.94092H85.988ZM159.194 6.99781C162.182 6.99781 164.008 8.93217 164.008 12.2319V22.814C164.008 24.0656 164.561 24.6915 165.945 25.0328H166V25.3173H158.917V12.4026C158.917 10.3545 158.198 9.33042 156.704 9.33042C155.487 9.33042 154.878 10.2407 154.546 11.0372C154.601 11.4354 154.657 11.8337 154.657 12.2319V22.9847C154.657 24.2932 155.044 24.7484 156.151 25.0328H156.206V25.3173H149.621V12.4026C149.621 10.3545 148.847 9.33042 147.408 9.33042C146.246 9.33042 145.637 10.1838 145.361 10.8665V23.0416C145.361 24.3501 145.748 24.8053 146.855 25.0897H146.91V25.3742H140.325V11.8337C140.325 10.0131 139.883 9.4442 138.389 9.33042H138.333V9.04595L145.361 7.0547V10.07C146.08 8.13567 147.74 6.99781 149.843 6.99781C152.222 6.99781 153.882 8.19256 154.435 10.3545C155.155 8.30635 156.981 6.99781 159.194 6.99781ZM58.266 1.13786L64.8507 17.0109L71.4353 1.13786H78.518L78.4627 1.42232L78.3823 1.44072C77.162 1.72667 76.526 2.19582 76.526 3.75492V23.0985C76.6367 24.3501 77.3007 24.7484 78.4627 25.0328H78.518V25.3173H69.4987V25.0328H69.554C70.716 24.7484 71.38 24.3501 71.4907 23.0985V4.26696L62.8033 25.2604H62.3053L53.8393 4.83589V22.6433C53.8393 24.2363 54.5033 24.6915 55.776 24.9759H55.8313V25.2604H50.63V24.9759H50.6853C51.958 24.6915 52.622 24.2363 52.622 22.6433V3.75492C52.622 2.16193 51.958 1.70678 50.6853 1.42232H50.63V1.13786H58.266ZM118.635 6.99781V22.5295L118.636 22.6346C118.663 24.2552 119.325 24.6986 120.571 25.0328L120.627 25.3173H113.599V11.8906C113.599 10.07 113.212 9.50109 111.663 9.38731H111.607V9.10285L118.635 6.99781ZM32.37 1.02407C35.7453 1.02407 38.5673 6.48578 38.5673 13.1422C38.5673 19.8556 35.8007 25.2604 32.37 25.2604C28.9393 25.2604 26.1727 19.8556 26.1727 13.1422C26.1727 6.42888 28.9393 1.02407 32.37 1.02407ZM41.8873 2.27571C43.16 2.27571 44.1007 7.16849 44.1007 13.1422C44.1007 19.116 43.1047 24.0088 41.8873 24.0088C40.6822 24.0088 39.6939 19.2133 39.6743 13.3211L39.674 13.1422C39.674 7.16849 40.67 2.27571 41.8873 2.27571ZM103.031 7.96499C100.817 7.96499 99.434 10.9803 99.434 15.6455C99.434 17.8643 99.8213 19.7987 100.485 21.1072C101.094 22.3589 101.979 23.0416 102.975 23.0416C103.971 23.0416 104.691 22.5864 105.023 21.733V9.21663C104.635 8.42013 103.916 7.96499 103.031 7.96499ZM85.9327 8.02188C83.9407 8.02188 82.7787 10.4683 82.6127 13.8818V13.9387H88.644C88.7547 11.2648 88.312 9.50109 87.482 8.6477C87.0393 8.24945 86.5413 8.02188 85.9327 8.02188ZM115.923 0.170678C117.528 0.170678 118.745 1.42232 118.745 3.07221C118.745 4.7221 117.528 5.97374 115.923 5.97374C114.319 5.97374 113.101 4.7221 113.101 3.07221C113.101 1.42232 114.319 0.170678 115.923 0.170678Z" fill="white"/>
</svg>
