<svg width="116" height="29" viewBox="0 0 116 29" fill="none" xmlns="http://www.w3.org/2000/svg">
<path d="M37.2699 11.4076C37.2699 9.34597 35.2083 7.14692 31.7723 7.14692C27.9239 7.14692 23.5258 10.0332 22.8386 15.8057C22.1514 21.5782 25.7249 24.1896 29.4358 24.1896C33.1467 24.1896 34.9334 22.8152 36.8576 20.891C35.2083 18.8294 33.0092 19.7915 32.5969 19.9289C32.1846 20.2038 31.4974 20.4787 30.3978 20.4787C29.0234 20.4787 27.5116 19.7915 27.5116 17.1801C36.5827 16.218 37.2699 13.4692 37.2699 11.4076ZM32.8718 11.6825C32.8718 12.3697 32.5969 13.4692 28.0613 14.019C29.0234 10.5829 30.8102 10.3081 31.6348 10.3081C32.4595 10.4455 32.8718 10.9953 32.8718 11.6825ZM17.6159 12.2322C17.6159 12.2322 15.6917 18.2796 15.5542 18.8294C15.5542 18.2796 14.0424 7.4218 14.0424 7.4218C10.7438 7.4218 8.95709 9.75829 8.13244 12.2322C8.13244 12.2322 5.79595 18.2796 5.65851 18.8294C5.52107 18.4171 5.24619 12.3697 5.24619 12.3697C4.9713 9.34597 2.22249 7.4218 0.0234375 7.4218L2.77225 23.9147C6.20827 23.9147 8.13244 21.5782 9.09453 19.1043C9.09453 19.1043 11.1561 13.7441 11.2936 13.4692C11.2936 13.7441 12.8054 23.9147 12.8054 23.9147C16.2414 23.9147 18.1656 21.7156 19.1277 19.3791L23.9381 7.4218C20.3647 7.4218 18.5779 9.75829 17.6159 12.2322ZM50.0519 7.00948C47.9903 7.00948 46.341 8.109 44.9666 9.89573L46.0661 0C43.1798 0 40.9808 2.47393 40.431 6.04739L38.232 23.7772C39.8813 23.7772 41.5305 23.3649 42.4926 22.128C43.3173 23.2275 44.5542 24.0521 46.341 24.0521C51.1514 24.0521 54.45 18.5545 54.45 13.3318C54.5874 8.52133 52.2509 7.00948 50.0519 7.00948ZM49.5021 15.5308C48.9523 18.4171 47.4405 20.3412 45.7912 20.3412C44.2794 20.3412 43.5922 19.654 43.5922 19.654C43.867 17.1801 44.1419 15.5308 44.6917 14.1564C45.2414 12.782 46.6159 10.7204 47.9903 10.7204C49.3647 10.8578 50.0519 12.6446 49.5021 15.5308ZM66.5448 7.4218H63.2462V7.28436C63.5211 5.08531 63.9334 3.98578 65.7201 3.84834C66.8196 3.7109 67.3694 3.16114 67.5068 2.47393C67.6443 1.92417 67.9192 0.137441 67.9192 0.137441C61.1846 0.137441 59.123 3.0237 58.5732 7.4218V7.55924H58.4358C57.3362 7.55924 56.0993 8.79621 55.9618 10.3081L55.8244 10.8578H58.0234L56.0993 26.2512L55.5495 29C55.6869 29 55.6869 29 55.8244 29C58.9855 28.8626 60.9097 26.3886 61.4595 22.8152L62.9713 10.7204H64.0708C65.0329 10.7204 66.2699 9.75829 66.5448 7.97156V7.4218ZM83.8623 7.14692C80.014 7.14692 76.4405 10.0332 75.341 14.4313C74.2414 18.8294 75.8907 24.1896 81.5258 24.1896C87.1609 24.1896 90.4595 18.6919 90.4595 14.1564C90.322 9.62085 87.2983 7.14692 83.8623 7.14692ZM85.3741 15.3934C85.2367 17.455 84.2746 20.4787 81.8007 20.4787C79.3268 20.4787 79.7391 16.9052 79.8765 15.2559C80.1514 13.4692 81.1135 10.8578 83.3125 10.8578C85.3741 10.8578 85.649 13.1943 85.3741 15.3934ZM109.426 12.2322C109.426 12.2322 107.502 18.2796 107.365 18.8294C107.365 18.2796 105.853 7.4218 105.853 7.4218C102.554 7.4218 100.768 9.75829 99.9429 12.2322C99.9429 12.2322 97.6064 18.2796 97.4689 18.8294C97.4689 18.4171 97.0566 12.3697 97.0566 12.3697C96.9192 9.34597 94.0329 7.55924 91.8339 7.55924L94.5827 24.0521C98.0187 24.0521 99.9429 21.7156 100.905 19.2417C100.905 19.2417 102.967 13.8815 103.104 13.6066C103.104 13.8815 104.616 24.0521 104.616 24.0521C108.052 24.0521 109.976 21.8531 110.938 19.5166L115.474 7.4218C112.038 7.4218 110.251 9.75829 109.426 12.2322ZM69.7059 0.137441L66.9571 22.6777L66.4073 25.4265C66.5448 25.4265 66.5448 25.4265 66.6822 25.4265C69.7059 25.4265 71.905 22.6777 72.1798 19.3791L73.8291 6.45972C74.2414 2.61137 71.7675 0.137441 69.7059 0.137441Z" fill="white"/>
</svg>
