<svg width="129" height="41" viewBox="0 0 129 41" fill="none" xmlns="http://www.w3.org/2000/svg">
<path d="M11.0062 18.3963C9.46789 17.5763 8.68085 16.8633 8.68085 15.9007C8.68085 14.6885 9.78986 13.9041 11.507 13.9041C13.5104 13.9041 15.2991 14.7241 15.2991 14.7241L16.6943 10.4458C16.6943 10.4458 15.4064 9.44757 11.6144 9.44757C6.31974 9.44757 2.63497 12.478 2.63497 16.7207C2.63497 19.145 4.35214 20.9633 6.64171 22.2825C8.50198 23.3164 9.14592 24.0651 9.14592 25.1703C9.14592 26.3112 8.21579 27.2382 6.49861 27.2382C3.95863 27.2382 1.52596 25.919 1.52596 25.919L0.0234375 30.1973C0.0234375 30.1973 2.24145 31.6947 5.99777 31.6947C11.4355 31.6947 15.3707 29.0208 15.3707 24.2077C15.3349 21.6051 13.3673 19.7511 11.0062 18.3963Z" fill="white"/>
<path d="M32.6856 9.37658C30.0025 9.37658 27.8918 10.6601 26.282 12.5853L26.2104 12.5496L28.5358 0.427806H22.4899L16.5871 31.3029H22.633L24.6364 20.7497C25.4234 16.7566 27.4983 14.2966 29.4301 14.2966C30.7896 14.2966 31.3262 15.2236 31.3262 16.5427C31.3262 17.3627 31.2546 18.3967 31.0758 19.2167L28.7862 31.3029H34.8321L37.1932 18.8245C37.4436 17.5053 37.6225 15.9366 37.6225 14.8671C37.6583 11.4444 35.8695 9.37658 32.6856 9.37658Z" fill="white"/>
<path d="M51.3593 9.37605C44.0614 9.37605 39.2318 15.9361 39.2318 23.2449C39.2318 27.9153 42.1295 31.6945 47.5673 31.6945C54.7221 31.6945 59.5517 25.3127 59.5517 17.8257C59.5875 13.5117 57.0475 9.37605 51.3593 9.37605ZM48.3901 27.0953C46.3151 27.0953 45.4566 25.3484 45.4566 23.1379C45.4566 19.6796 47.2453 14.0465 50.5365 14.0465C52.683 14.0465 53.3985 15.9005 53.3985 17.6831C53.3985 21.3909 51.574 27.0953 48.3901 27.0953Z" fill="white"/>
<path d="M75.0786 9.37605C71.0003 9.37605 68.675 12.9769 68.675 12.9769H68.6034L68.9612 9.73257H63.595C63.3446 11.9074 62.8438 15.2587 62.3787 17.7544L58.1573 39.8589H64.2032L65.8846 30.9101H66.0277C66.0277 30.9101 67.2798 31.6945 69.5694 31.6945C76.6885 31.6945 81.3391 24.4214 81.3391 17.077C81.3391 13.0126 79.5146 9.37605 75.0786 9.37605ZM69.2831 27.1666C67.7091 27.1666 66.7789 26.2753 66.7789 26.2753L67.7806 20.6422C68.4961 16.8631 70.4637 14.3674 72.5744 14.3674C74.4347 14.3674 75.0071 16.0787 75.0071 17.6831C75.0071 21.6049 72.6817 27.1666 69.2831 27.1666Z" fill="white"/>
<path d="M89.9955 0.712898C88.0637 0.712898 86.5254 2.24595 86.5254 4.20684C86.5254 5.98947 87.6702 7.2373 89.3873 7.2373H89.4589C91.3549 7.2373 92.9648 5.95381 93.0005 3.74336C93.0005 1.99639 91.82 0.712898 89.9955 0.712898Z" fill="white"/>
<path d="M81.5173 31.2669H87.5632L91.6773 9.87538H85.5956L81.5173 31.2669Z" fill="white"/>
<path d="M107.096 9.84008H102.874L103.089 8.84181C103.447 6.77397 104.663 4.95569 106.702 4.95569C107.775 4.95569 108.634 5.27657 108.634 5.27657L109.815 0.534787C109.815 0.534787 108.777 0 106.523 0C104.377 0 102.23 0.606093 100.585 1.99654C98.5098 3.74351 97.5439 6.27484 97.0789 8.84181L96.9 9.84008H94.0738L93.1794 14.4036H96.0056L92.7859 31.3029H98.8318L102.051 14.4036H106.237L107.096 9.84008Z" fill="white"/>
<path d="M121.691 9.87538C121.691 9.87538 117.899 19.3946 116.218 24.5999H116.146C116.039 22.9242 114.644 9.87538 114.644 9.87538H108.276L111.925 29.5199C111.996 29.9477 111.961 30.2329 111.782 30.5182C111.066 31.873 109.886 33.1921 108.491 34.1547C107.346 34.9747 106.058 35.5095 105.056 35.866L106.738 41C107.954 40.7504 110.53 39.7165 112.676 37.72C115.431 35.153 118.007 31.1599 120.618 25.7407L128.023 9.87538H121.691Z" fill="white"/>
</svg>
