<svg width="164" height="46" viewBox="0 0 164 46" fill="none" xmlns="http://www.w3.org/2000/svg">
<path d="M8.41254 0.161288C5.07634 1.55054 1.40875 5.47537 0.250408 10.4019C-1.21654 16.6439 4.88813 19.2835 5.38884 18.418C5.97817 17.4011 4.29495 17.0572 3.94848 13.8185C3.50068 9.63548 5.45548 4.96142 7.91566 2.91058C8.37296 2.52956 8.35121 3.05988 8.35121 4.04082C8.35121 5.79497 8.25378 21.5421 8.25378 24.8285C8.25378 29.2755 8.06915 30.6797 7.73755 32.0673C7.40157 33.4735 6.86143 34.4237 7.27072 34.7896C7.728 35.1991 9.68043 34.2252 10.8107 32.6559C12.1661 30.7737 12.6406 28.5132 12.7257 26.0584C12.8286 23.0993 12.8242 18.4037 12.8286 15.7253C12.8327 13.2689 12.8702 6.07592 12.7853 1.75177C12.7645 0.69114 9.80774 -0.421613 8.41237 0.159998L8.41254 0.161288ZM126.881 20.9727C126.773 23.2846 126.259 25.0916 125.62 26.3662C124.384 28.8338 121.82 29.6 120.731 26.0528C120.137 24.1192 120.109 20.8899 120.536 18.1917C120.97 15.4429 122.183 13.367 124.191 13.5542C126.172 13.7392 127.099 16.2782 126.881 20.9727ZM93.4914 35.3161C93.4645 39.1574 92.8568 42.5254 91.5536 43.5036C89.7053 44.8907 87.221 43.8503 87.7354 41.0472C88.1906 38.5668 90.3431 36.0336 93.4966 32.9385C93.4966 32.9385 93.5031 33.6444 93.4914 35.3161ZM92.9866 20.9503C92.8735 23.056 92.3248 25.1713 91.7262 26.3665C90.4905 28.834 87.9071 29.6054 86.8366 26.0531C86.1046 23.6259 86.2799 20.4846 86.6421 18.5053C87.112 15.9372 88.2512 13.5547 90.297 13.5547C92.2861 13.5547 93.267 15.7255 92.9866 20.9503ZM73.6441 20.9181C73.5229 23.1482 73.0855 25.0125 72.3838 26.3665C71.114 28.8171 68.602 29.5942 67.4942 26.0531C66.6955 23.4996 66.9674 20.0179 67.2996 18.1371C67.7927 15.346 69.0273 13.3672 70.9546 13.5547C72.9344 13.7471 73.8968 16.2782 73.6441 20.9181ZM162.286 23.523C161.802 23.523 161.581 24.0193 161.399 24.8546C160.765 27.7592 160.099 28.4151 159.24 28.4151C158.28 28.4151 157.418 26.9768 157.196 24.0978C157.022 21.8339 157.05 17.666 157.272 13.5201C157.318 12.6683 157.082 11.8254 154.785 10.9954C153.797 10.6384 152.36 10.1128 151.645 11.8304C149.624 16.6829 148.834 20.5354 148.648 22.1004C148.638 22.1814 148.538 22.198 148.52 22.0087C148.402 20.7552 148.137 18.4774 148.104 13.6918C148.098 12.7581 147.899 11.9633 146.863 11.3126C146.191 10.8904 144.149 10.1436 143.414 11.032C142.778 11.7586 142.04 13.7139 141.274 16.0317C140.651 17.9155 140.217 19.1898 140.217 19.1898C140.217 19.1898 140.226 14.1069 140.233 12.1789C140.236 11.4515 139.735 11.2091 139.584 11.1652C138.903 10.9687 137.562 10.6404 136.993 10.6404C136.29 10.6404 136.118 11.0309 136.118 11.6C136.118 11.6745 136.007 18.2921 136.007 22.9195C136.007 23.1205 136.007 23.3398 136.009 23.5727C135.621 25.6995 134.361 28.5866 132.991 28.5866C131.619 28.5866 130.972 27.3796 130.972 21.8631C130.972 18.6449 131.069 17.2455 131.117 14.9179C131.145 13.5773 131.198 12.5477 131.195 12.3141C131.185 11.5976 129.94 11.2365 129.36 11.1031C128.778 10.9685 128.272 10.9164 127.877 10.9388C127.318 10.9701 126.922 11.3351 126.922 11.837C126.922 12.1061 126.925 12.6179 126.925 12.6179C126.205 11.492 125.047 10.7084 124.276 10.4813C122.2 9.86804 120.034 10.4115 118.4 12.6858C117.102 14.493 116.319 16.5397 116.011 19.4803C115.786 21.6301 115.859 23.8102 116.26 25.6539C115.776 27.7343 114.878 28.5866 113.895 28.5866C112.467 28.5866 111.432 26.2687 111.553 22.2599C111.632 19.6232 112.162 17.7728 112.742 15.0959C112.989 13.9547 112.788 13.3573 112.284 12.7846C111.822 12.2595 110.838 11.9912 109.423 12.3212C108.415 12.5565 106.974 12.8095 105.655 13.0038C105.655 13.0038 105.735 12.688 105.8 12.1312C106.143 9.21136 102.954 9.44826 101.936 10.3809C101.329 10.9377 100.915 11.5944 100.758 12.7751C100.509 14.6488 102.046 15.5326 102.046 15.5326C101.542 17.8277 100.306 20.8259 99.0306 22.9936C98.3475 24.1549 97.8248 25.0155 97.1502 25.9304C97.1477 25.5897 97.1458 25.2491 97.1446 24.91C97.1292 20.0848 97.1937 16.2872 97.2222 14.9184C97.25 13.5777 97.304 12.5755 97.301 12.3419C97.2934 11.8178 96.9857 11.6199 96.3459 11.3694C95.7802 11.1478 95.1113 10.9944 94.4175 10.9409C93.5417 10.8729 93.0142 11.335 93.0279 11.8814C93.0305 11.9846 93.0305 12.6181 93.0305 12.6181C92.3103 11.4922 91.152 10.7086 90.3813 10.4815C88.3055 9.86849 86.1395 10.4119 84.5057 12.686C83.2075 14.4931 82.3572 17.029 82.1163 19.4581C81.8919 21.7221 81.9333 23.6461 82.2393 25.2668C81.9092 26.8897 80.9602 28.5868 79.8872 28.5868C78.5154 28.5868 77.7349 27.3798 77.7349 21.8633C77.7349 18.6451 77.832 17.2457 77.8797 14.9184C77.9074 13.5777 77.9609 12.5479 77.9579 12.3146C77.9478 11.5981 76.7024 11.237 76.123 11.1033C75.5167 10.9638 74.9932 10.9125 74.5913 10.942C74.061 10.9813 73.6881 11.4537 73.6881 11.8061V12.6181C72.9679 11.4922 71.8096 10.7086 71.0389 10.4815C68.9631 9.86849 66.8092 10.4207 65.1633 12.686C64.09 14.1632 63.2211 15.8008 62.7739 19.4259C62.6447 20.4735 62.5876 21.4545 62.595 22.3715C62.167 24.9754 60.2767 27.9765 58.7304 27.9765C57.8256 27.9765 56.9639 26.2306 56.9639 22.5096C56.9639 17.553 57.2722 10.496 57.3244 9.81583C57.3244 9.81583 59.278 9.78281 59.6564 9.77843C60.6309 9.76778 61.5135 9.79071 62.8115 9.72466C63.4625 9.69164 64.0897 7.3673 63.4178 7.07964C63.1133 6.94945 60.961 6.83536 60.1077 6.81735C59.3903 6.80117 57.393 6.65413 57.393 6.65413C57.393 6.65413 57.5721 1.96998 57.6138 1.47516C57.6492 1.06275 57.1128 0.850409 56.8053 0.721565C56.0574 0.406876 55.3882 0.256206 54.5951 0.0935387C53.4993 -0.13135 53.0021 0.0886255 52.905 1.0087C52.7588 2.40506 52.6831 6.495 52.6831 6.495C51.8789 6.495 49.1321 6.33862 48.3277 6.33862C47.5803 6.33862 46.7737 9.53608 47.8069 9.57537C48.9957 9.62123 51.0674 9.6608 52.4408 9.70202C52.4408 9.70202 52.3796 16.8753 52.3796 19.09C52.3796 19.3256 52.3817 19.5525 52.3821 19.7726C51.6262 23.692 48.9639 25.8092 48.9639 25.8092C49.5356 23.2163 48.3677 21.2691 46.264 19.6209C45.4889 19.0135 43.9588 17.8636 42.2468 16.6035C42.2468 16.6035 43.2383 15.6313 44.1177 13.6755C44.7407 12.2901 44.7676 10.7046 43.2383 10.3549C40.7115 9.77685 38.6281 11.623 38.0066 13.5939C37.5251 15.1207 37.7819 16.2536 38.7252 17.4305C38.794 17.5165 38.8687 17.6044 38.9458 17.6928C38.3754 18.7865 37.5918 20.259 36.9281 21.401C35.0861 24.5714 33.6946 27.0791 32.643 27.0791C31.8023 27.0791 31.8136 24.5331 31.8136 22.1494C31.8136 20.0943 31.9661 17.0048 32.0879 13.8059C32.1283 12.748 31.5965 12.1454 30.7052 11.5995C30.1636 11.2679 29.0077 10.6159 28.3383 10.6159C27.3363 10.6159 24.4455 10.7515 21.714 18.6118C21.3697 19.6025 20.6935 21.4078 20.6935 21.4078L20.7517 11.9554C20.7517 11.7338 20.633 11.5196 20.3614 11.373C19.9011 11.1243 18.6717 10.6159 17.5786 10.6159C17.0577 10.6159 16.7978 10.8569 16.7978 11.3372L16.7024 26.1255C16.7024 27.2491 16.7319 28.5599 16.8436 29.1333C16.9548 29.7073 17.1351 30.1743 17.3583 30.4521C17.5812 30.7294 17.8391 30.941 18.2642 31.0283C18.6599 31.1093 20.8266 31.3861 20.9392 30.5624C21.0741 29.5752 21.0793 28.5075 22.217 24.5253C23.9882 18.3255 26.2975 15.3005 27.3831 14.2263C27.573 14.0385 27.7897 14.0273 27.7793 14.3346C27.7329 15.6939 27.5699 19.0903 27.4602 21.9758C27.1661 29.6977 28.5782 31.129 30.5961 31.129C32.1399 31.129 34.3161 29.603 36.649 25.7401C38.1034 23.3328 39.5155 20.9725 40.53 19.2712C41.2371 19.9223 42.0305 20.6231 42.8234 21.3718C44.6659 23.1115 45.2709 24.7647 44.8695 26.3329C44.5625 27.5319 43.4064 28.7674 41.3487 27.5665C40.749 27.2161 40.493 26.9455 39.8899 26.5505C39.5659 26.3383 39.0713 26.2748 38.7747 26.4971C38.0043 27.075 37.5637 27.81 37.3121 28.72C37.0674 29.6054 37.9588 30.0735 38.8828 30.4829C39.6784 30.8352 41.3885 31.1545 42.4791 31.1909C46.7283 31.3323 50.1322 29.1498 52.5019 23.5203C52.926 28.3821 54.7313 31.1333 57.8677 31.1333C59.9646 31.1333 62.067 28.4369 62.9864 25.7843C63.2503 26.8656 63.641 27.8059 64.1456 28.601C66.5624 32.4104 71.2508 31.5905 73.6059 28.3557C74.3341 27.3562 74.4449 26.997 74.4449 26.997C74.7884 30.0514 77.2609 31.1186 78.6766 31.1186C80.2621 31.1186 81.8992 30.3729 83.0465 27.8032C83.181 28.0821 83.3278 28.3484 83.488 28.6009C85.9048 32.4103 90.5933 31.5904 92.9483 28.3556C93.0595 28.2039 93.1558 28.0662 93.24 27.9427L93.3091 29.949C93.3091 29.949 91.9656 31.1751 91.1409 31.9272C87.5112 35.2401 84.7511 37.7536 84.5481 40.6806C84.2875 44.4127 87.3301 45.7998 89.6319 45.9816C92.0765 46.1745 94.1698 44.8312 95.4565 42.9511C96.5882 41.2963 97.329 37.7348 97.2747 34.2172C97.253 32.8086 97.2173 31.0175 97.1894 29.0977C98.4651 27.6238 99.9025 25.761 101.226 23.5806C102.668 21.2043 104.214 18.0132 105.006 15.5297C105.006 15.5297 106.349 15.5412 107.782 15.4479C108.24 15.4181 108.372 15.5112 108.287 15.8455C108.185 16.2495 106.476 22.8049 108.035 27.1719C109.103 30.1613 111.509 31.1232 112.935 31.1232C114.605 31.1232 116.202 29.8687 117.058 28.006C117.161 28.2136 117.269 28.4146 117.387 28.6001C119.803 32.4095 124.476 31.5847 126.847 28.3548C127.382 27.6261 127.686 26.9961 127.686 26.9961C128.195 30.1572 130.666 31.1338 132.081 31.1338C133.556 31.1338 134.955 30.5325 136.09 27.8602C136.138 29.0368 136.212 29.9989 136.33 30.3022C136.402 30.4877 136.821 30.7206 137.126 30.8331C138.475 31.3306 139.85 31.0953 140.359 30.993C140.712 30.922 140.987 30.6406 141.024 29.914C141.123 28.0062 141.063 24.8008 141.644 22.4186C142.62 18.4207 143.53 16.8699 143.962 16.1021C144.204 15.6719 144.476 15.601 144.486 16.0562C144.507 16.9774 144.553 19.6825 144.931 23.3169C145.208 25.9899 145.579 27.5698 145.864 28.0698C146.678 29.4997 147.683 29.5674 148.501 29.5674C149.021 29.5674 150.109 29.4244 150.012 28.5144C149.965 28.0709 150.048 25.3298 151.01 21.391C151.638 18.8189 152.686 16.4948 153.063 15.6452C153.203 15.3318 153.268 15.5788 153.265 15.6269C153.186 17.3983 153.007 23.1922 153.733 26.361C154.716 30.6538 157.56 31.1341 158.552 31.1341C160.668 31.1341 162.398 29.5328 162.981 25.3192C163.122 24.3052 162.914 23.5222 162.291 23.5222" fill="white"/>
</svg>
