<svg width="140" height="38" viewBox="0 0 140 38" fill="none" xmlns="http://www.w3.org/2000/svg">
<path d="M5.93976 37.4698V14.0806H6.35553L23.3432 37.4698H28.689V3.12248H22.7493V26.4527H22.3335L5.34578 3.12248H0V37.4698H5.93976ZM45.4985 38C53.339 38 58.1502 32.9333 58.1502 24.4496C58.1502 16.0248 53.339 10.8992 45.4985 10.8992C37.7174 10.8992 32.8468 16.0248 32.8468 24.4496C32.9062 32.9333 37.658 38 45.4985 38ZM45.4985 33.0512C41.3407 33.0512 38.9648 29.9287 38.9648 24.4496C38.9648 19.0295 41.3407 15.8481 45.4985 15.8481C49.6563 15.8481 52.0322 19.0295 52.0322 24.4496C52.0322 29.9287 49.6563 33.0512 45.4985 33.0512ZM63.5554 5.06666V11.6062H59.3975V16.3194H63.5554V30.5178C63.5554 35.5845 65.9313 37.5876 71.9898 37.5876C73.1184 37.5876 74.2469 37.4698 75.1379 37.293V32.6977C74.4251 32.7566 73.9499 32.8155 73.1184 32.8155C70.6237 32.8155 69.4951 31.6961 69.4951 29.1039V16.3194H75.1379V11.6062H69.4951V5.06666H63.5554ZM78.7018 37.4698H84.6415V11.4295H78.7018V37.4698ZM81.6716 7.12868C83.6317 7.12868 85.2355 5.53798 85.2355 3.59379C85.2355 1.59069 83.6317 0 81.6716 0C79.7115 0 78.1078 1.59069 78.1078 3.59379C78.1078 5.53798 79.7115 7.12868 81.6716 7.12868ZM100.916 38C108.757 38 113.568 32.9333 113.568 24.4496C113.568 16.0248 108.757 10.8992 100.916 10.8992C93.1353 10.8992 88.2647 16.0248 88.2647 24.4496C88.2647 32.9333 93.0165 38 100.916 38ZM100.916 33.0512C96.7586 33.0512 94.3827 29.9287 94.3827 24.4496C94.3827 19.0295 96.7586 15.8481 100.916 15.8481C105.015 15.8481 107.45 19.0295 107.45 24.4496C107.391 29.9287 105.015 33.0512 100.916 33.0512ZM117.073 37.4698H123.012V22.3287C123.012 18.4992 125.269 16.0837 128.774 16.0837C132.397 16.0837 134.06 18.0868 134.06 22.0341V37.4698H140V20.6202C140 14.3752 136.793 10.8992 130.972 10.8992C127.051 10.8992 124.438 12.6667 123.19 15.6124H122.775V11.4295H117.013C117.073 11.4295 117.073 37.4698 117.073 37.4698Z" fill="white"/>
</svg>
