<svg width="151" height="24" viewBox="0 0 151 24" fill="none" xmlns="http://www.w3.org/2000/svg">
<path d="M0 1.32685H12.2022C15.1438 1.32685 17.6288 1.79002 19.6675 2.7119C21.7007 3.63371 23.2252 4.91984 24.2356 6.56571C25.2452 8.21157 25.7547 10.0958 25.7547 12.2183C25.7547 14.2959 25.2273 16.1801 24.1725 17.8664C23.1178 19.5572 21.513 20.8928 19.3543 21.8776C17.1957 22.8624 14.5221 23.3571 11.3266 23.3571H0V1.32685ZM11.2012 17.7585C13.1814 17.7585 14.706 17.2593 15.7693 16.2655C16.8335 15.2672 17.3655 13.9091 17.3655 12.1868C17.3655 10.5904 16.8911 9.31777 15.9438 8.36442C14.9965 7.41108 13.5616 6.92996 11.6437 6.92996H7.82651V17.7585H11.2012Z" fill="white"/>
<path d="M44.0231 23.3302C42.3334 22.8896 40.8089 22.251 39.455 21.4101V16.1847C40.4786 16.9806 41.8504 17.6372 43.5713 18.1543C45.2921 18.667 46.9553 18.9233 48.564 18.9233C49.3149 18.9233 49.8828 18.8243 50.2669 18.6265C50.6517 18.4286 50.8441 18.1903 50.8441 17.916C50.8441 17.6012 50.7413 17.3404 50.531 17.129C50.3206 16.9177 49.914 16.7423 49.311 16.5938L45.5562 15.7439C43.4061 15.2403 41.8816 14.5433 40.9748 13.6484C40.0673 12.758 39.6154 11.5888 39.6154 10.1408C39.6154 8.92215 40.0089 7.86544 40.805 6.96152C41.5957 6.05767 42.7221 5.36062 44.1836 4.87044C45.6458 4.37582 47.3526 4.1285 49.3149 4.1285C51.0669 4.1285 52.6717 4.31735 54.1339 4.69511C55.5953 5.07287 56.802 5.55399 57.7633 6.14307V11.0852C56.7794 10.4961 55.653 10.0329 54.366 9.68212C53.083 9.3359 51.7649 9.16501 50.4055 9.16501C48.4432 9.16501 47.4648 9.50226 47.4648 10.1723C47.4648 10.4871 47.6167 10.7209 47.9205 10.8783C48.2243 11.0357 48.7829 11.1976 49.5923 11.3685L52.7208 11.9351C54.7641 12.2904 56.2879 12.9155 57.2889 13.8058C58.2907 14.6962 58.7908 16.0138 58.7908 17.7586C58.7908 19.6697 57.9643 21.1852 56.3058 22.3094C54.6473 23.4337 52.2962 23.9958 49.2479 23.9958C47.4554 23.9913 45.7128 23.7709 44.0231 23.3302Z" fill="white"/>
<path d="M66.1764 22.669C64.3846 21.7875 63.0299 20.5914 62.1271 19.0804C61.2242 17.5695 60.7685 15.8697 60.7685 13.9809C60.7685 12.0923 61.2374 10.4014 62.1761 8.91296C63.1148 7.42448 64.4914 6.25529 66.3065 5.40538C68.1208 4.55548 70.2888 4.13275 72.8143 4.13275C75.9428 4.13275 78.5401 4.79381 80.6052 6.11586V11.8764C79.8768 11.3727 79.027 10.9635 78.0571 10.6488C77.0872 10.334 76.0503 10.1765 74.9418 10.1765C73.0021 10.1765 71.4869 10.5318 70.3916 11.2468C69.2963 11.9618 68.7471 12.8927 68.7471 14.0484C68.7471 15.1816 69.2784 16.108 70.3425 16.8365C71.4067 17.5605 72.9483 17.9247 74.973 17.9247C76.0145 17.9247 77.0428 17.7718 78.0571 17.4706C79.0675 17.1648 79.9392 16.7915 80.6675 16.3508V21.9224C78.3749 23.3075 75.7154 24 72.6889 24C70.1415 23.991 67.9689 23.5503 66.1764 22.669Z" fill="white"/>
<path d="M88.4092 22.6693C86.6035 21.7879 85.2269 20.5827 84.2789 19.0493C83.3316 17.5158 82.8533 15.8071 82.8533 13.9183C82.8533 12.0297 83.3269 10.3433 84.2789 8.86387C85.2308 7.38437 86.5988 6.22415 88.396 5.38322C90.1877 4.54229 92.3292 4.12409 94.8096 4.12409C97.2907 4.12409 99.4314 4.54229 101.224 5.38322C103.016 6.22415 104.384 7.37539 105.323 8.84584C106.262 10.3164 106.731 12.0027 106.731 13.9139C106.731 15.8025 106.262 17.5114 105.323 19.0448C104.384 20.5782 103.012 21.7834 101.206 22.6648C99.4003 23.5462 97.2681 23.9869 94.8057 23.9869C92.3424 23.9869 90.2103 23.5507 88.4092 22.6693ZM97.9163 17.0841C98.6766 16.3197 99.0606 15.3079 99.0606 14.0488C99.0606 12.7897 98.6805 11.7868 97.9163 11.0448C97.1567 10.2983 96.1191 9.9251 94.8057 9.9251C93.4689 9.9251 92.4227 10.2983 91.6584 11.0448C90.8989 11.7913 90.5188 12.7897 90.5188 14.0488C90.5188 15.3079 90.8989 16.3197 91.6584 17.0841C92.4188 17.8486 93.4689 18.2354 94.8057 18.2354C96.1191 18.2309 97.1567 17.8486 97.9163 17.0841Z" fill="white"/>
<path d="M125.531 5.29325V12.0926C124.735 11.5664 123.707 11.3056 122.433 11.3056C120.765 11.3056 119.478 11.8138 118.584 12.83C117.686 13.8464 117.239 15.4293 117.239 17.5697V23.3618H109.573V4.94703H117.083V10.802C117.498 8.66141 118.174 7.08306 119.103 6.0622C120.028 5.04593 121.226 4.5378 122.683 4.5378C123.787 4.5378 124.735 4.78964 125.531 5.29325Z" fill="white"/>
<path d="M151 0.69723V23.3616H143.334V19.238C142.686 20.7894 141.702 21.9721 140.38 22.7815C139.056 23.5865 137.42 23.9912 135.481 23.9912C133.746 23.9912 132.236 23.5685 130.944 22.7186C129.652 21.8687 128.656 20.704 127.954 19.2245C127.256 17.745 126.903 16.0722 126.903 14.2015C126.881 12.2723 127.252 10.541 128.016 9.00751C128.776 7.47406 129.853 6.27794 131.239 5.41898C132.625 4.56009 134.207 4.12839 135.981 4.12839C139.633 4.12839 142.083 5.72476 143.334 8.91305V0.69723H151ZM142.19 16.9581C142.972 16.1936 143.361 15.1998 143.361 13.9856C143.361 12.8119 142.981 11.854 142.221 11.1211C141.461 10.3881 140.419 10.0193 139.11 10.0193C137.818 10.0193 136.786 10.3926 136.013 11.139C135.239 11.8856 134.855 12.8523 134.855 14.0485C134.855 15.2448 135.239 16.2206 136.013 16.976C136.786 17.7315 137.805 18.1092 139.079 18.1092C140.37 18.1048 141.407 17.7225 142.19 16.9581Z" fill="white"/>
<path d="M32.2145 6.9072C34.3249 6.9072 36.0364 5.36094 36.0364 3.45356C36.0364 1.54619 34.3249 0 32.2145 0C30.1034 0 28.3927 1.54619 28.3927 3.45356C28.3927 5.36094 30.1034 6.9072 32.2145 6.9072Z" fill="white"/>
<path d="M28.3893 9.28632C30.7311 10.3026 33.6368 10.3476 36.0322 9.28632V23.4605H28.3893V9.28632Z" fill="white"/>
</svg>
