<svg width="146" height="31" viewBox="0 0 146 31" fill="none" xmlns="http://www.w3.org/2000/svg">
<path d="M0.0329988 0H20.0651V3.68349H12.1777V24.448H7.85443V3.68349H0L0.0329988 0ZM19.2071 6.74763H22.9033V10.1703H22.9693C23.1013 9.68138 23.3323 9.22503 23.6623 8.76866C23.9923 8.3123 24.3883 7.88853 24.8834 7.52996C25.3454 7.13879 25.8734 6.84542 26.4674 6.61724C27.0285 6.38906 27.6225 6.25867 28.2165 6.25867C28.6786 6.25867 29.0086 6.29127 29.1736 6.29127C29.3386 6.32387 29.5366 6.35647 29.7016 6.35647V10.1052C29.4376 10.04 29.1406 10.0074 28.8436 9.97476C28.5466 9.94216 28.2825 9.90957 27.9855 9.90957C27.3255 9.90957 26.6985 10.04 26.1044 10.3007C25.5104 10.5615 25.0154 10.9527 24.5533 11.4416C24.1243 11.9632 23.7613 12.5825 23.4973 13.3323C23.2333 14.082 23.1013 14.9621 23.1013 15.9401V24.3502H19.141L19.2071 6.74763ZM47.8526 24.448H43.9584V21.9706H43.8924C43.3974 22.8833 42.6713 23.5678 41.7143 24.122C40.7572 24.6761 39.7672 24.9369 38.7771 24.9369C36.434 24.9369 34.7179 24.3828 33.6618 23.2093C32.6058 22.0683 32.0778 20.3081 32.0778 17.9937V6.74763H36.038V17.6025C36.038 19.1672 36.335 20.2755 36.962 20.8948C37.5561 21.5468 38.4141 21.8728 39.5032 21.8728C40.3282 21.8728 41.0212 21.7424 41.5823 21.4816C42.1433 21.2208 42.6053 20.8948 42.9354 20.4711C43.2984 20.0473 43.5294 19.5258 43.6944 18.939C43.8594 18.3523 43.9254 17.7003 43.9254 17.0158V6.74763H47.8856V24.448H47.8526ZM54.585 18.776C54.717 19.9169 55.146 20.6993 55.9051 21.1882C56.6641 21.6446 57.5881 21.8728 58.6442 21.8728C59.0072 21.8728 59.4363 21.8402 59.8983 21.775C60.3603 21.7098 60.8223 21.612 61.2184 21.449C61.6474 21.286 61.9774 21.0578 62.2414 20.7319C62.5054 20.4059 62.6374 20.0147 62.6044 19.5258C62.5714 19.0368 62.4064 18.613 62.0434 18.2871C61.6804 17.9611 61.2514 17.7329 60.7233 17.5047C60.1953 17.3091 59.5683 17.1462 58.8752 17.0158C58.1822 16.8854 57.4891 16.7224 56.7631 16.5594C56.0371 16.3964 55.311 16.2008 54.618 15.9727C53.925 15.7445 53.3309 15.4511 52.7699 15.0273C52.2419 14.6362 51.7798 14.1472 51.4828 13.5279C51.1528 12.9085 50.9878 12.1914 50.9878 11.2786C50.9878 10.3007 51.2188 9.5184 51.7138 8.86645C52.1758 8.21451 52.8029 7.69295 53.5289 7.30179C54.255 6.91062 55.08 6.61724 55.9711 6.45426C56.8621 6.29127 57.7202 6.22607 58.5122 6.22607C59.4363 6.22607 60.3273 6.32387 61.1523 6.51945C61.9774 6.71504 62.7694 7.00841 63.4295 7.46477C64.1225 7.88854 64.6835 8.47528 65.1126 9.15983C65.5746 9.84437 65.8386 10.6919 65.9706 11.6698H61.8454C61.6474 10.7245 61.2184 10.1052 60.5583 9.77918C59.8653 9.45321 59.1062 9.29022 58.2152 9.29022C57.9512 9.29022 57.5882 9.32281 57.2251 9.35541C56.8291 9.42061 56.4991 9.48581 56.1361 9.6162C55.8061 9.74658 55.509 9.94216 55.278 10.1703C55.047 10.3985 54.915 10.7245 54.915 11.1157C54.915 11.6046 55.08 11.9632 55.41 12.2566C55.7401 12.5499 56.1691 12.7781 56.7301 13.0063C57.2581 13.2019 57.8852 13.3649 58.5782 13.4953C59.2712 13.6257 59.9973 13.7886 60.7233 13.9516C61.4494 14.1146 62.1424 14.3102 62.8354 14.5384C63.5285 14.7666 64.1555 15.0599 64.6835 15.4837C65.2116 15.8749 65.6736 16.3638 66.0036 16.9506C66.3336 17.5373 66.4986 18.2871 66.4986 19.1346C66.4986 20.1777 66.2676 21.0578 65.7726 21.8076C65.2776 22.5247 64.6505 23.1441 63.8915 23.6004C63.1325 24.0568 62.2414 24.3828 61.3174 24.6109C60.3603 24.8065 59.4363 24.9369 58.5122 24.9369C57.3901 24.9369 56.3341 24.8065 55.377 24.5457C54.42 24.285 53.5619 23.8938 52.8689 23.4048C52.1758 22.8833 51.6148 22.2639 51.2188 21.4816C50.8228 20.7319 50.5918 19.8191 50.5588 18.7434H54.552V18.776H54.585ZM67.6207 6.74763H70.6239V1.40168H74.5841V6.71503H78.1483V9.6162H74.5841V19.0694C74.5841 19.4932 74.6171 19.8191 74.6501 20.1451C74.6831 20.4385 74.7821 20.6993 74.8811 20.8948C75.0131 21.0904 75.2111 21.2534 75.4421 21.3512C75.7061 21.449 76.0362 21.5142 76.4982 21.5142C76.7622 21.5142 77.0592 21.5142 77.3232 21.4816C77.5872 21.449 77.8843 21.4164 78.1483 21.3512V24.3828C77.7193 24.448 77.2902 24.4805 76.8612 24.5131C76.4322 24.5783 76.0362 24.5783 75.5741 24.5783C74.5181 24.5783 73.693 24.4806 73.066 24.285C72.439 24.0894 71.9439 23.796 71.5809 23.4374C71.2179 23.0463 70.9869 22.5899 70.8549 22.0357C70.7229 21.4816 70.6569 20.7971 70.6239 20.0799V9.64878H67.6207V6.68244V6.74763ZM80.9204 6.74763H84.6496V9.15983H84.7156C85.2767 8.11671 86.0357 7.39958 87.0258 6.94322C88.0158 6.48685 89.0719 6.25867 90.2599 6.25867C91.679 6.25867 92.9001 6.48686 93.9561 7.00841C95.0122 7.49737 95.8703 8.14931 96.5633 9.02944C97.2563 9.87697 97.7843 10.8875 98.1144 12.0284C98.4444 13.1693 98.6424 14.408 98.6424 15.6793C98.6424 16.8854 98.4774 18.0263 98.1804 19.1346C97.8504 20.2429 97.3883 21.2534 96.7613 22.1009C96.1343 22.9485 95.3422 23.633 94.3522 24.1546C93.3621 24.6761 92.2401 24.9369 90.92 24.9369C90.3589 24.9369 89.7649 24.8717 89.2039 24.7739C88.6429 24.6761 88.0818 24.5131 87.5538 24.285C87.0258 24.0568 86.5307 23.7634 86.1017 23.4048C85.6397 23.0463 85.2767 22.6225 84.9797 22.1661H84.9136V31H80.9534V6.74763H80.9204ZM94.7482 15.6141C94.7482 14.8318 94.6492 14.0494 94.4182 13.2997C94.2202 12.5499 93.8901 11.898 93.4611 11.3112C93.0321 10.7245 92.5041 10.2681 91.91 9.90957C91.283 9.551 90.557 9.38801 89.7649 9.38801C88.1148 9.38801 86.8608 9.94217 86.0027 11.0831C85.1777 12.224 84.7486 13.756 84.7486 15.6467C84.7486 16.5594 84.8476 17.3743 85.0787 18.1241C85.3097 18.8738 85.6067 19.5258 86.0687 20.0799C86.4977 20.6341 87.0258 21.0578 87.6528 21.3838C88.2798 21.7098 88.9729 21.8728 89.7979 21.8728C90.722 21.8728 91.448 21.6772 92.075 21.3186C92.7021 20.96 93.1971 20.4711 93.6261 19.9169C94.0221 19.3302 94.3192 18.6782 94.4842 17.9285C94.6492 17.1462 94.7482 16.3964 94.7482 15.6141ZM101.712 0H105.672V3.68349H101.712V0ZM101.712 6.74763H105.672V24.448H101.712V6.74763ZM109.203 0H113.163V24.448H109.203V0ZM125.242 24.9369C123.823 24.9369 122.536 24.7087 121.414 24.2198C120.292 23.7308 119.368 23.1115 118.576 22.2965C117.816 21.4816 117.222 20.4711 116.826 19.3302C116.43 18.1893 116.199 16.918 116.199 15.5815C116.199 14.245 116.397 13.0063 116.826 11.8654C117.222 10.7245 117.816 9.74658 118.576 8.89905C119.335 8.08412 120.292 7.43218 121.414 6.97581C122.536 6.51945 123.823 6.25867 125.242 6.25867C126.661 6.25867 127.948 6.48686 129.07 6.97581C130.192 7.43218 131.116 8.08412 131.908 8.89905C132.667 9.71398 133.261 10.7245 133.657 11.8654C134.053 13.0063 134.284 14.245 134.284 15.5815C134.284 16.9506 134.086 18.1893 133.657 19.3302C133.228 20.4711 132.667 21.449 131.908 22.2965C131.149 23.1115 130.192 23.7634 129.07 24.2198C127.948 24.6761 126.694 24.9369 125.242 24.9369ZM125.242 21.8402C126.1 21.8402 126.892 21.6446 127.519 21.286C128.179 20.9274 128.674 20.4385 129.103 19.8517C129.532 19.265 129.829 18.5804 130.027 17.8633C130.225 17.1136 130.324 16.3638 130.324 15.5815C130.324 14.8318 130.225 14.082 130.027 13.3323C129.829 12.5825 129.532 11.9306 129.103 11.3438C128.674 10.7571 128.146 10.3007 127.519 9.94217C126.859 9.5836 126.1 9.38801 125.242 9.38801C124.384 9.38801 123.592 9.5836 122.965 9.94217C122.305 10.3007 121.81 10.7897 121.381 11.3438C120.952 11.9306 120.655 12.5825 120.457 13.3323C120.259 14.082 120.16 14.8318 120.16 15.5815C120.16 16.3638 120.259 17.1136 120.457 17.8633C120.655 18.613 120.952 19.265 121.381 19.8517C121.81 20.4385 122.338 20.9274 122.965 21.286C123.625 21.6772 124.384 21.8402 125.242 21.8402ZM135.472 6.74763H138.476V1.40168H142.436V6.71503H146V9.6162H142.436V19.0694C142.436 19.4932 142.469 19.8191 142.502 20.1451C142.535 20.4385 142.634 20.6993 142.733 20.8948C142.865 21.0904 143.063 21.2534 143.294 21.3512C143.558 21.449 143.888 21.5142 144.35 21.5142C144.614 21.5142 144.911 21.5142 145.175 21.4816C145.439 21.449 145.736 21.4164 146 21.3512V24.3828C145.571 24.448 145.142 24.4805 144.713 24.5131C144.284 24.5783 143.888 24.5783 143.426 24.5783C142.37 24.5783 141.545 24.4806 140.918 24.285C140.291 24.0894 139.796 23.796 139.433 23.4374C139.07 23.0463 138.839 22.5899 138.707 22.0357C138.575 21.4816 138.509 20.7971 138.476 20.0799V9.64878H135.472V6.68244V6.74763Z" fill="white"/>
</svg>
