<svg width="13" height="11" viewBox="0 0 13 11" fill="none" xmlns="http://www.w3.org/2000/svg">
<path d="M12.2709 2.92578C12.2709 2.92578 9.68431 6.14193 6.50032 6.14193C3.31634 6.14193 0.729784 2.92578 0.729784 2.92578M2.76927 10.0013H10.2307C10.9512 10.0013 11.3115 10.0013 11.5867 9.86108C11.8287 9.73777 12.0255 9.54094 12.1488 9.2989C12.2891 9.02372 12.2891 8.66345 12.2891 7.94297V3.05443C12.2891 2.33395 12.2891 1.9737 12.1488 1.69851C12.0255 1.45645 11.8287 1.25964 11.5867 1.13631C11.3115 0.996094 10.9512 0.996094 10.2307 0.996094H2.76927C2.04879 0.996094 1.68854 0.996094 1.41336 1.13631C1.17129 1.25964 0.974488 1.45645 0.851155 1.69851C0.710937 1.9737 0.710938 2.33394 0.710938 3.05443V7.94297C0.710938 8.66345 0.710937 9.02372 0.851155 9.2989C0.974488 9.54094 1.17129 9.73777 1.41336 9.86108C1.68854 10.0013 2.04878 10.0013 2.76927 10.0013Z" stroke="white" stroke-width="0.861334" stroke-linecap="round" stroke-linejoin="round"/>
</svg>
