<svg width="11" height="11" viewBox="0 0 11 11" fill="none" xmlns="http://www.w3.org/2000/svg">
<path d="M3.54261 2.38555L3.92341 3.06791C4.26708 3.6837 4.12913 4.49151 3.58785 5.03279C3.58785 5.03279 2.93137 5.68937 4.12168 6.87972C5.31162 8.06967 5.96862 7.41356 5.96862 7.41356C6.5099 6.87227 7.31769 6.73433 7.93349 7.07799L8.61583 7.45879C9.54572 7.97772 9.65551 9.28173 8.83821 10.0991C8.3471 10.5902 7.74543 10.9724 7.08035 10.9975C5.96075 11.04 4.05937 10.7567 2.15205 8.84935C0.244755 6.94204 -0.0386016 5.04066 0.00384448 3.92105C0.0290574 3.25597 0.411201 2.65432 0.902323 2.16321C1.71965 1.34588 3.02366 1.4557 3.54261 2.38555Z" fill="white"/>
<path d="M5.43135 0.369559C5.47019 0.12964 5.69697 -0.0331092 5.9369 0.00572829C5.95174 0.00857406 5.99956 0.0175045 6.02456 0.0230787C6.07467 0.034233 6.14449 0.0513956 6.23157 0.0767612C6.40572 0.12748 6.64899 0.211041 6.94096 0.344898C7.52554 0.612905 8.30347 1.08172 9.11073 1.88899C9.91799 2.69625 10.3868 3.47417 10.6548 4.05875C10.7887 4.35073 10.8722 4.594 10.9229 4.76814C10.9483 4.85522 10.9655 4.92506 10.9766 4.97512C10.9822 5.00016 10.9863 5.02026 10.9891 5.03511L10.9925 5.05342C11.0313 5.29332 10.8701 5.52955 10.6301 5.56839C10.3909 5.60711 10.1655 5.44511 10.1258 5.20636C10.1245 5.19991 10.1211 5.18271 10.1175 5.16646C10.1103 5.13395 10.0978 5.08242 10.0779 5.01427C10.0382 4.87795 9.96927 4.67532 9.85474 4.42555C9.62602 3.92662 9.2147 3.23766 8.48835 2.51134C7.76207 1.78501 7.0731 1.3737 6.57418 1.14496C6.32439 1.03045 6.12179 0.961492 5.98542 0.92178C5.9173 0.90193 5.83163 0.882268 5.79913 0.875033C5.56032 0.835233 5.39262 0.608792 5.43135 0.369559Z" fill="white"/>
<path fill-rule="evenodd" clip-rule="evenodd" d="M5.56782 2.39351C5.63459 2.15981 5.87815 2.0245 6.11186 2.09126L5.99099 2.5144C6.11186 2.09126 6.11186 2.09126 6.11186 2.09126L6.11274 2.09151L6.11362 2.09177L6.11556 2.09234L6.12013 2.0937L6.13175 2.09731C6.14055 2.10014 6.15164 2.10383 6.16479 2.1085C6.19113 2.11786 6.22598 2.13115 6.2687 2.14946C6.35419 2.1861 6.47096 2.24267 6.61448 2.32758C6.90164 2.49755 7.29371 2.77989 7.75431 3.24047C8.21492 3.70107 8.49721 4.09313 8.66719 4.38033C8.75209 4.5238 8.80866 4.6406 8.84533 4.72608C8.86364 4.7688 8.87695 4.80363 8.88628 4.82998C8.89098 4.84315 8.89462 4.8542 8.89749 4.86305L8.90107 4.87466L8.90242 4.87921L8.90301 4.88116L8.90324 4.88206C8.90324 4.88206 8.90353 4.88291 8.48036 5.0038L8.90353 4.88291C8.97031 5.1166 8.83494 5.36015 8.6013 5.42693C8.36959 5.49311 8.12813 5.36068 8.05896 5.13063L8.05678 5.12431C8.05368 5.11549 8.04722 5.09813 8.03637 5.07278C8.01466 5.02212 7.97528 4.93925 7.9098 4.8286C7.77896 4.60754 7.54267 4.27353 7.13194 3.86282C6.72127 3.45212 6.38723 3.21584 6.16619 3.08501C6.05553 3.01951 5.97268 2.98014 5.92199 2.95843C5.89664 2.94757 5.87927 2.94109 5.87047 2.93797L5.86413 2.9358C5.63412 2.86663 5.50163 2.62521 5.56782 2.39351Z" fill="white"/>
</svg>
