<svg width="42" height="41" viewBox="0 0 42 41" fill="none" xmlns="http://www.w3.org/2000/svg">
<g clip-path="url(#clip0_1515_5)">
<path d="M16.9543 18.5822L19.0535 25.626L17.6841 18.9758L16.9543 18.5822Z" fill="white"/>
<path d="M20.4036 20.2282H20.3954L20.7644 20.7612L25.2498 21.2368L20.3954 20.22L20.4036 20.2282Z" fill="white"/>
<path fill-rule="evenodd" clip-rule="evenodd" d="M0.0234375 20.5C0.0234375 9.1758 9.19924 0 20.5234 0C31.8476 0 41.0234 9.1758 41.0234 20.5C41.0234 31.8242 31.8476 41 20.5234 41C9.19924 41 0.0234375 31.8242 0.0234375 20.5ZM21.5074 27.4618L29.9206 29.7332L29.9124 29.7004H29.9534L26.3618 21.1232C26.3521 21.0999 26.342 21.0754 26.3314 21.05C25.8509 19.8935 24.47 16.57 21.2286 14.9814C18.3951 13.587 15.5954 14.2879 14.18 14.6422C14.039 14.6775 13.9117 14.7094 13.7994 14.7354L9.62564 11.2668L9.45344 11.4718L13.7092 15.0142C13.5944 16.523 13.3566 20.213 15.259 23.3044C17.1632 26.3881 20.1112 27.1163 21.3021 27.4104C21.3779 27.4291 21.4466 27.4461 21.5074 27.4618Z" fill="white"/>
</g>
<defs>
<clipPath id="clip0_1515_5">
<rect width="41" height="41" fill="white" transform="translate(0.0234375)"/>
</clipPath>
</defs>
</svg>
