<svg width="96" height="34" viewBox="0 0 96 34" fill="none" xmlns="http://www.w3.org/2000/svg">
<path fill-rule="evenodd" clip-rule="evenodd" d="M40.9838 11.2299C42.7378 10.8967 44.4919 10.5459 46.2283 10.2126C46.2108 17.9829 46.2108 25.7357 46.2283 33.4885C44.4919 33.1376 42.7378 32.7693 41.0014 32.436C40.9487 31.752 40.9838 31.0679 40.9838 30.3838C40.9663 24.0167 40.9663 17.6321 40.9838 11.2299ZM83.4136 14.6678C81.9402 14.7029 80.4317 15.1589 79.2916 16.1061C78.3445 16.8779 77.6604 17.9303 77.2745 19.0879C76.8535 20.3333 76.7658 21.6839 76.9237 22.9994C77.0991 24.5079 77.6955 25.9988 78.7479 27.1038C79.5723 27.9808 80.6948 28.5947 81.87 28.8578C83.3434 29.1911 84.9396 29.1385 86.3253 28.4895C87.3426 28.0335 88.1845 27.2266 88.7809 26.2794C89.4474 25.2095 89.7807 23.9641 89.8859 22.7012C90.0087 21.2805 89.8508 19.8246 89.3246 18.4916C88.8686 17.2988 88.0442 16.2289 86.9392 15.5448C85.8867 14.8958 84.6414 14.6152 83.4136 14.6678ZM82.6418 9.7741C85.1851 9.59869 87.8512 10.0723 90.0438 11.4229C91.2716 12.1771 92.324 13.1769 93.1484 14.3521C93.8675 15.4045 94.3938 16.5797 94.7621 17.8075C95.148 19.123 95.2883 20.5087 95.3058 21.8768C95.3058 24.3851 94.727 26.946 93.3413 29.0683C92.1311 30.9627 90.2893 32.436 88.1845 33.2078C86.8164 33.7165 85.3781 33.962 83.9222 33.9971C81.186 34.0497 78.362 33.3832 76.1344 31.7695C74.2401 30.4189 72.8544 28.4369 72.1528 26.2268C71.6616 24.7534 71.4687 23.1748 71.4862 21.6137C71.5038 18.895 72.2931 16.1237 73.9945 13.9837C75.3802 12.2122 77.3622 10.9493 79.5197 10.3178C80.5194 10.0021 81.5719 9.82672 82.6418 9.7741ZM7.44694 10.809C8.70983 10.0723 10.1657 9.72148 11.6215 9.73902C13.9368 9.82672 16.1644 11.0195 17.515 12.9138C18.1991 11.9842 19.1463 11.265 20.1636 10.7563C22.4614 9.65131 25.2502 9.47591 27.6182 10.4406C28.7232 10.8967 29.723 11.5983 30.4948 12.5104C31.2841 13.44 31.8103 14.5626 32.126 15.7202C32.4593 16.9305 32.547 18.1934 32.5119 19.4388C32.5119 24.122 32.5119 28.8228 32.5119 33.506C30.7754 33.1552 29.0214 32.7868 27.2674 32.4536C27.2498 27.9633 27.2674 23.473 27.2498 18.9827C27.2674 17.9478 26.899 16.8954 26.1623 16.1763C25.373 15.3694 24.2154 14.9835 23.0928 15.0011C22.093 14.9835 21.0757 15.2817 20.2864 15.9132C19.3918 16.6148 18.9182 17.7724 18.9182 18.9125C18.9182 23.7712 18.9182 28.6474 18.9182 33.506C17.1642 33.1552 15.4102 32.7868 13.6562 32.4536C13.6386 31.0153 13.6562 29.5594 13.6386 28.1036C13.6386 25.0867 13.6386 22.0698 13.6386 19.0353C13.6737 18.0005 13.3229 16.9305 12.5862 16.1938C11.9372 15.5273 11.0427 15.1414 10.1481 15.0362C9.28866 14.9485 8.41165 15.0186 7.6048 15.3519C6.76287 15.7027 6.04372 16.3692 5.65784 17.1936C5.39473 17.7549 5.27195 18.3688 5.27195 18.9827C5.27195 22.7714 5.27195 26.5601 5.27195 30.3488C5.28949 31.4012 5.25441 32.4536 5.28949 33.506C3.53547 33.1727 1.79899 32.7868 0.0625082 32.4711C0.0274278 31.8572 0.0800484 31.2258 0.0274278 30.6294C0.044968 29.9278 0.044968 29.2262 0.0274278 28.5246C0.0800484 27.8756 0.0274278 27.2091 0.044968 26.5601C0.044968 24.7008 0.044968 22.8416 0.044968 20.9823C0.0274278 19.8246 0.0625082 18.6494 0.0274278 17.4918C0.044968 16.8428 0.044968 16.1763 0.0274278 15.5273C0.0625082 14.2293 0.044968 12.9489 0.044968 11.6509C0.0625082 11.5281 -0.0427331 11.3352 0.0975886 11.265C1.83407 10.9317 3.55301 10.5985 5.28949 10.2652C5.27195 11.0545 5.28949 11.8438 5.28949 12.6332C5.9034 11.8965 6.62255 11.265 7.44694 10.809ZM64.6631 10.0898C65.505 9.9495 66.3645 9.80918 67.2064 9.66885C67.2064 11.493 67.2064 13.3172 67.2064 15.1414C66.3645 15.2993 65.5226 15.4571 64.6806 15.5974C63.4177 15.8079 62.1022 16.1763 61.1551 17.0884C60.3833 17.8075 60.0149 18.8599 59.9448 19.8948C59.8922 20.6315 59.9272 21.3682 59.9272 22.1224C59.9272 25.9111 59.9272 29.6998 59.9272 33.4885C58.4714 33.1903 57.0156 32.8921 55.5422 32.6114C55.2615 32.5588 54.9984 32.4887 54.7003 32.4536C54.6301 32.0502 54.6827 31.6467 54.6652 31.2433C54.6652 27.2091 54.6652 23.1924 54.6652 19.1581C54.7003 17.8952 54.9107 16.6148 55.4369 15.4396C55.9456 14.2644 56.8402 13.2646 57.8926 12.5279C59.2958 11.5632 60.927 10.9844 62.5758 10.5459C63.2774 10.388 63.9439 10.1951 64.6631 10.0898ZM43.0886 0.0392819C43.9306 -0.0659594 44.8427 0.0217416 45.5618 0.530408C46.3862 1.07415 46.8422 2.05641 46.8598 3.02112C46.9124 3.30176 46.8422 3.59994 46.8422 3.88059C46.7545 4.7576 46.2985 5.59953 45.5443 6.09065C44.755 6.61686 43.7376 6.70456 42.808 6.51162C42.0362 6.35376 41.3171 5.86263 40.8786 5.17856C40.3699 4.37171 40.2822 3.35438 40.4751 2.42475C40.6506 1.54774 41.2469 0.74089 42.0538 0.355006C42.387 0.197144 42.7378 0.0919025 43.0886 0.0392819Z" fill="white"/>
</svg>
