<svg width="173" height="27" viewBox="0 0 173 27" fill="none" xmlns="http://www.w3.org/2000/svg">
<path d="M47.2688 20.3058V11.7522C47.2688 11.5289 47.1177 11.3803 46.8915 11.3803H44.0234V8.0331H46.8915C47.1177 8.0331 47.2688 7.88427 47.2688 7.66121V2.30592H51.3441V7.66121C51.3441 7.88427 51.4952 8.0331 51.7216 8.0331H55.7216V11.3803H51.7216C51.4952 11.3803 51.3441 11.5289 51.3441 11.7522V19.339C51.3441 22.9092 52.6272 23.2067 54.2876 23.2067C54.8914 23.2067 55.797 23.1323 56.3253 23.0579V26.5537C55.6462 26.6281 54.5141 26.7769 53.231 26.7769C51.646 26.7025 47.2688 26.7025 47.2688 20.3058ZM158.061 22.3885L161.382 20.6777C162.137 22.3885 163.571 23.5042 165.231 23.5042C166.514 23.5042 167.948 22.9834 167.948 21.4215C167.948 20.3802 167.269 19.7851 165.684 19.2646L163.42 18.5208C160.25 17.5538 158.665 15.7687 158.665 13.2397C158.665 10.0414 161.382 7.66121 165.08 7.66121C168.023 7.66121 170.514 9.22318 171.722 11.6778L168.401 13.4628C167.646 11.9008 166.439 11.0084 165.005 11.0084C163.571 11.0084 162.59 11.7522 162.59 12.8678C162.59 13.8347 163.344 14.5786 164.854 15.0248L167.118 15.7687C170.439 16.81 172.023 18.595 172.023 21.0496C172.023 24.9175 168.627 26.9258 165.231 26.9258C161.835 26.8514 159.118 25.1406 158.061 22.3885ZM145.533 19.0413C145.458 19.1157 145.382 19.1901 145.382 19.2646V26.405H141.231V0H145.382V14.4298C145.382 14.5786 145.458 14.7273 145.608 14.7273C145.759 14.8017 145.91 14.7273 145.986 14.6529L152.703 7.95868H157.759L149.91 15.7687C149.759 15.9174 149.759 16.0662 149.91 16.2148L158.439 26.405H153.382L146.816 18.372C146.74 18.2975 146.665 18.2231 146.59 18.2231C146.514 18.2231 146.439 18.2231 146.363 18.2975L145.533 19.0413ZM139.193 10.4877L136.552 12.9423C135.042 11.8266 133.533 11.3059 131.872 11.3059C128.401 11.3059 125.835 13.8347 125.835 17.2563C125.835 20.6777 128.401 23.2067 131.872 23.2067C133.382 23.2067 134.967 22.686 136.627 21.5703L138.967 24.0249C135.571 26.4795 133.759 26.9258 131.42 26.9258C128.627 26.9258 126.137 25.9587 124.325 24.1735C122.589 22.4629 121.608 19.9339 121.608 17.2563C121.608 11.6778 125.759 7.58679 131.495 7.58679C133.382 7.58679 136.174 7.88427 139.193 10.4877ZM119.722 2.52899C119.722 3.8679 118.59 4.98357 117.231 4.98357C115.872 4.98357 114.74 3.8679 114.74 2.52899C114.74 1.19008 115.872 0.0744085 117.231 0.0744085C118.59 0.0744085 119.722 1.19008 119.722 2.52899ZM119.344 26.405H115.193V8.0331H119.344V26.405ZM106.137 18.372V26.4795H101.986V8.10751H106.061V10.3388C106.061 10.4877 106.137 10.6365 106.288 10.7107C106.439 10.7852 106.589 10.7107 106.665 10.5621C107.722 8.85129 109.684 7.73562 111.797 7.73562C112.099 7.73562 112.325 7.73562 112.476 7.81003V11.9752C112.25 11.9008 111.873 11.9008 111.495 11.9008C108.174 11.8266 106.137 14.3554 106.137 18.372ZM83.8725 17.2563C83.8725 13.9091 86.4387 11.3059 89.7593 11.3059C93.0801 11.3059 95.6461 13.9091 95.6461 17.2563C95.6461 20.6033 93.0801 23.2067 89.7593 23.2067C86.4387 23.2067 83.8725 20.6033 83.8725 17.2563ZM84.25 24.2479C84.3254 24.2479 84.3254 24.2479 84.4008 24.2479C84.4762 24.2479 84.6272 24.3224 84.7027 24.3968C86.1366 26.0332 88.2499 26.9258 90.6651 26.9258C95.7971 26.9258 99.7216 22.686 99.7216 17.2563C99.7216 14.5786 98.816 12.1985 97.08 10.3388C95.4198 8.55381 93.0801 7.58679 90.5895 7.58679C88.2499 7.58679 86.0612 8.55382 84.6272 10.2644C84.5518 10.3389 84.4008 10.4133 84.25 10.3388C84.0989 10.2644 84.0235 10.1902 84.0235 10.0414V0.0744085H79.8725V26.4795H84.0235V24.6198C84.0235 24.3968 84.0989 24.3224 84.25 24.2479ZM67.0423 23.2067C63.7971 23.2067 61.1555 20.6033 61.1555 17.2563C61.1555 13.9091 63.7217 11.3059 67.0423 11.3059C70.3631 11.3059 72.9291 13.9091 72.9291 17.2563C72.9291 20.6033 70.2876 23.2067 67.0423 23.2067ZM76.7782 26.405V8.0331H72.7028V9.89254C72.7028 10.0414 72.6272 10.1902 72.4764 10.1902C72.3253 10.2644 72.1745 10.1902 72.0989 10.1158C70.7405 8.4794 68.6273 7.58679 66.1367 7.58679C61.0046 7.58679 57.0801 11.8266 57.0801 17.2563C57.0801 22.686 61.0801 26.9258 66.1367 26.9258C68.4762 26.9258 70.6649 25.9587 72.0989 24.2479C72.1745 24.0993 72.3253 24.0993 72.4764 24.1735C72.6272 24.2479 72.7028 24.3224 72.7028 24.4712V26.4795H76.7782V26.405ZM32.099 23.2067C28.8536 23.2067 26.2122 20.6033 26.2122 17.2563C26.2122 13.9091 28.7782 11.3059 32.099 11.3059C35.3441 11.3059 37.9858 13.9091 37.9858 17.2563C37.9858 20.6033 35.3441 23.2067 32.099 23.2067ZM41.8349 26.405V8.0331H37.7593V9.89254C37.7593 10.0414 37.6839 10.1902 37.5329 10.1902C37.382 10.2644 37.231 10.1902 37.1556 10.1158C35.797 8.4794 33.6837 7.58679 31.1933 7.58679C26.0611 7.58679 22.1366 11.8266 22.1366 17.2563C22.1366 22.686 26.1367 26.9258 31.1933 26.9258C33.5329 26.9258 35.7216 25.9587 37.1556 24.2479C37.231 24.0993 37.382 24.0993 37.5329 24.1735C37.6839 24.2479 37.7593 24.3224 37.7593 24.4712V26.4795H41.8349V26.405ZM10.0612 23.2067C6.74042 23.2067 4.17438 20.6033 4.17438 17.2563C4.17438 13.9091 6.74042 11.3059 10.0612 11.3059C13.3065 11.3059 15.948 13.9091 15.948 17.2563C15.948 20.6033 13.3065 23.2067 10.0612 23.2067ZM19.797 26.405V0.0744085H15.6461V9.96696C15.6461 10.1158 15.5706 10.2644 15.4197 10.2644C15.2687 10.3389 15.1178 10.2644 15.0423 10.1902C13.6083 8.55381 11.4951 7.66121 9.08005 7.66121C3.94797 7.66121 0.0234375 11.9008 0.0234375 17.3307C0.0234375 20.0083 0.929099 22.3885 2.66495 24.2479C4.32532 26.0332 6.66496 27 9.15551 27C11.4951 27 13.6838 26.0332 15.1178 24.3224C15.1933 24.2479 15.3442 24.1735 15.4951 24.2479C15.6461 24.3224 15.7215 24.3968 15.7215 24.5456V26.4795H19.797V26.405Z" fill="white"/>
</svg>
