<svg width="19" height="18" viewBox="0 0 19 18" fill="none" xmlns="http://www.w3.org/2000/svg">
<path d="M14.0618 3.44511C13.8585 3.44511 13.6597 3.50544 13.4905 3.61837C13.3215 3.73138 13.1897 3.89195 13.1118 4.07986C13.034 4.26776 13.0137 4.47443 13.0534 4.6739C13.0931 4.87337 13.1909 5.05656 13.3348 5.20034C13.4786 5.3442 13.6617 5.44205 13.8612 5.48172C14.0607 5.52139 14.2674 5.50109 14.4553 5.42329C14.6432 5.3454 14.8037 5.21362 14.9167 5.04457C15.0297 4.87543 15.09 4.67664 15.09 4.47331C15.09 4.20058 14.9817 3.93908 14.7888 3.74629C14.596 3.55342 14.3345 3.44511 14.0618 3.44511ZM18.0032 5.51865C17.9866 4.80774 17.8535 4.10436 17.6091 3.43655C17.3912 2.86512 17.0521 2.34777 16.6152 1.91995C16.1909 1.48074 15.6723 1.14383 15.0986 0.934591C14.4325 0.682853 13.7283 0.546616 13.0165 0.531878C12.1082 0.480468 11.8169 0.480469 9.48631 0.480469C7.15572 0.480469 6.86439 0.480468 5.95615 0.531878C5.24429 0.546616 4.54006 0.682853 3.87405 0.934591C3.30142 1.14589 2.78321 1.48262 2.35745 1.91995C1.91824 2.34425 1.58133 2.86281 1.37209 3.43655C1.12035 4.10256 0.984116 4.80679 0.969378 5.51865C0.917968 6.42689 0.917969 6.71822 0.917969 9.04881C0.917969 11.3794 0.917968 11.6707 0.969378 12.579C0.984116 13.2908 1.12035 13.995 1.37209 14.6611C1.58133 15.2348 1.91824 15.7534 2.35745 16.1777C2.78321 16.615 3.30142 16.9517 3.87405 17.163C4.54006 17.4148 5.24429 17.551 5.95615 17.5657C6.86439 17.6171 7.15572 17.6171 9.48631 17.6171C11.8169 17.6171 12.1082 17.6171 13.0165 17.5657C13.7283 17.551 14.4325 17.4148 15.0986 17.163C15.6723 16.9538 16.1909 16.6169 16.6152 16.1777C17.054 15.7515 17.3934 15.2336 17.6091 14.6611C17.8535 13.9933 17.9866 13.2899 18.0032 12.579C18.0032 11.6707 18.0546 11.3794 18.0546 9.04881C18.0546 6.71822 18.0546 6.42689 18.0032 5.51865ZM16.4609 12.4761C16.4547 13.0201 16.3562 13.5589 16.1696 14.0699C16.0328 14.4427 15.8131 14.7797 15.527 15.0552C15.249 15.3384 14.9128 15.5577 14.5416 15.6978C14.0307 15.8845 13.4918 15.9829 12.9479 15.9892C12.0911 16.032 11.7741 16.0406 9.52058 16.0406C7.26711 16.0406 6.95008 16.0406 6.09325 15.9892C5.52851 15.9997 4.96617 15.9128 4.43099 15.7321C4.07609 15.5848 3.75529 15.3661 3.48847 15.0895C3.20409 14.8142 2.98705 14.477 2.85441 14.1041C2.64526 13.5859 2.52916 13.0347 2.51168 12.4761C2.51168 11.6193 2.46027 11.3023 2.46027 9.04881C2.46027 6.79533 2.46027 6.4783 2.51168 5.62147C2.51554 5.06547 2.61707 4.51436 2.81157 3.99349C2.96237 3.63182 3.19398 3.30948 3.48847 3.05097C3.74878 2.75639 4.07052 2.52239 4.43099 2.3655C4.95331 2.177 5.50374 2.07855 6.05897 2.07418C6.9158 2.07418 7.23283 2.02277 9.48631 2.02277C11.7398 2.02277 12.0568 2.02277 12.9136 2.07418C13.4576 2.08043 13.9964 2.17889 14.5074 2.3655C14.8967 2.51005 15.2462 2.74491 15.527 3.05097C15.8078 3.31419 16.0272 3.63593 16.1696 3.99349C16.3601 4.51521 16.4586 5.06607 16.4609 5.62147C16.5038 6.4783 16.5123 6.79533 16.5123 9.04881C16.5123 11.3023 16.5038 11.6193 16.4609 12.4761ZM9.48631 4.65325C8.61731 4.65496 7.76835 4.91416 7.04664 5.39818C6.32485 5.88221 5.76285 6.5693 5.43143 7.37267C5.10009 8.17595 5.01423 9.05952 5.18483 9.91155C5.35542 10.7637 5.77467 11.546 6.3898 12.16C7.00483 12.7738 7.78806 13.1916 8.64053 13.3605C9.4929 13.5294 10.3763 13.4419 11.179 13.1089C11.9817 12.776 12.6676 12.2126 13.1502 11.4899C13.6329 10.7673 13.8904 9.91781 13.8904 9.04881C13.8915 8.47053 13.7784 7.89774 13.5573 7.36342C13.3363 6.82901 13.0118 6.34361 12.6025 5.93516C12.1932 5.52662 11.7071 5.20308 11.1724 4.98304C10.6375 4.7631 10.0646 4.65102 9.48631 4.65325ZM9.48631 11.9021C8.922 11.9021 8.37037 11.7347 7.90116 11.4212C7.43188 11.1077 7.06618 10.6621 6.85026 10.1407C6.63425 9.61937 6.57778 9.04564 6.68789 8.49212C6.79799 7.93869 7.06969 7.43025 7.46872 7.03122C7.86775 6.63219 8.37619 6.36049 8.92962 6.25039C9.48314 6.14028 10.0569 6.19675 10.5782 6.41276C11.0996 6.62868 11.5452 6.99438 11.8587 7.46366C12.1722 7.93287 12.3396 8.4845 12.3396 9.04881C12.3396 9.4235 12.2658 9.79451 12.1224 10.1407C11.979 10.4869 11.7688 10.8014 11.5039 11.0664C11.2389 11.3313 10.9244 11.5415 10.5782 11.6849C10.232 11.8283 9.861 11.9021 9.48631 11.9021Z" fill="#ECE5DB"/>
</svg>
