<svg width="143" height="24" viewBox="0 0 143 24" fill="none" xmlns="http://www.w3.org/2000/svg">
<path d="M141.528 7.07578C141.528 6.54344 141.143 6.18854 140.509 6.18854L139.263 6.21072L139.286 8.91682H139.965V7.98521H140.373L140.962 8.91682H141.754L141.052 7.87431C141.197 7.79536 141.318 7.67953 141.402 7.53901C141.486 7.39849 141.529 7.23846 141.528 7.07578ZM140.373 7.43068H139.943V6.74307H140.441C140.531 6.73344 140.621 6.75803 140.692 6.81173C140.764 6.86542 140.812 6.9441 140.826 7.03142V7.05361C140.824 7.10844 140.811 7.1623 140.786 7.21173C140.762 7.26116 140.727 7.30504 140.685 7.34057C140.642 7.3761 140.592 7.40248 140.539 7.418C140.485 7.43352 140.428 7.43784 140.373 7.43068ZM39.9221 19.586C38.7673 19.586 37.9747 18.6987 37.9747 17.39V11.4233H42.7301V7.20887H37.9861L37.9408 2.37338H32.6873L32.7325 18.4769C32.7325 21.7375 34.9517 23.9556 38.2125 23.9556C39.9335 23.9556 41.5639 23.7116 42.8546 23.1349V19.0314C41.938 19.4481 40.9312 19.6385 39.9221 19.586ZM52.4672 6.9427C47.576 6.9427 43.817 10.6691 43.817 15.6155C43.817 20.5176 47.576 23.9335 52.7616 23.9335C55.6827 23.9335 58.4227 22.9131 60.0983 20.8059L56.0676 19.0092C55.2524 19.7412 54.007 20.0296 52.8974 20.0296C51.0859 20.0296 49.2743 19.1201 49.0252 17.2569H61.0494C61.2301 16.5912 61.3215 15.9052 61.3211 15.2163C61.3211 10.1368 57.5395 6.9427 52.4785 6.9427H52.4672ZM49.0252 13.9963C49.1837 11.7782 50.8141 10.7579 52.603 10.7579C54.6184 10.7579 56.1356 11.8669 56.1356 13.7745V13.9963H49.0252ZM27.6942 19.586C26.5393 19.586 25.7467 18.6987 25.7467 17.39V11.4233H30.5021V7.20887H25.7581L25.7128 2.37338H20.4593L20.5045 18.4769C20.5045 21.7375 22.7237 23.9556 25.9845 23.9556C27.7055 23.9556 29.3359 23.7116 30.6266 23.1349V19.0314C29.7107 19.4501 28.7034 19.6406 27.6942 19.586ZM9.23893 6.9427C4.73269 6.9427 0 9.84843 0 15.7043C0 20.5841 3.35138 24 7.58589 24C10.0088 24 11.843 23.0462 13.0432 21.3604L13.2017 23.7116H18.2854V15.9039C18.2854 9.95934 13.8131 6.9427 9.23893 6.9427ZM9.23893 19.4972C6.95184 19.4972 5.2988 17.8336 5.2988 15.4824C5.2988 13.1312 6.9292 11.4677 9.23893 11.4677C11.3675 11.4677 13.1338 13.2865 13.1338 15.4824C13.1338 17.6784 11.3675 19.4972 9.23893 19.4972ZM140.26 4.96857C138.607 4.99076 137.542 6.03327 137.565 7.58595C137.588 9.13863 138.675 10.159 140.328 10.1368C141.935 10.1146 143.022 9.07209 143 7.49723C142.977 5.92237 141.89 4.94639 140.26 4.96857ZM140.328 9.69316C139.037 9.71534 138.154 8.87246 138.154 7.58595C138.154 6.29945 138.992 5.43438 140.282 5.4122C141.573 5.39002 142.434 6.2329 142.456 7.54159C142.456 8.80591 141.596 9.67098 140.339 9.69316H140.328ZM114.581 7.23105L110.912 17.6562L107.199 7.23105H101.492L108.331 23.6895H113.449L120.287 7.23105H114.581ZM128.19 6.9427C123.299 6.9427 119.54 10.6691 119.54 15.6155C119.54 20.5176 123.299 23.9335 128.485 23.9335C131.406 23.9335 134.146 22.9131 135.821 20.8059L131.791 19.0092C130.975 19.7412 129.73 20.0296 128.62 20.0296C126.809 20.0296 124.997 19.1201 124.748 17.2569H136.772C136.953 16.5912 137.044 15.9052 137.044 15.2163C137.044 10.1368 133.263 6.9427 128.19 6.9427ZM131.859 13.9963H124.748C124.907 11.7782 126.537 10.7579 128.326 10.7579C130.341 10.7579 131.859 11.8669 131.859 13.7745V13.9963ZM97.439 0C95.5822 0 94.1782 1.21997 94.1782 2.92791C94.1782 4.63586 95.5822 5.90019 97.439 5.90019C99.2959 5.90019 100.7 4.65804 100.7 2.92791C100.7 1.19778 99.3185 0 97.439 0ZM73.5944 6.92052C72.5327 6.90372 71.4846 7.15636 70.5521 7.65389C69.6196 8.15141 68.8345 8.87687 68.273 9.7597L68.0918 7.23105H63.0195V23.6895H68.273V15.061C68.3862 12.9981 70.0845 11.4233 71.9414 11.4233C74.0247 11.4233 74.9757 12.9538 74.9757 14.8835V23.6673H80.2066V14.085C80.2066 9.91497 77.6138 6.92052 73.5944 6.92052ZM89.6267 19.586C88.4718 19.586 87.6793 18.6987 87.6793 17.39V11.4233H92.4346V7.20887H87.6793L87.634 2.37338H82.3805L82.4258 18.4769C82.4258 21.7375 84.6449 23.9556 87.9057 23.9556C89.6267 23.9556 91.2571 23.7116 92.5478 23.1349V19.0314C91.6353 19.4483 90.6321 19.6387 89.6267 19.586ZM94.7896 7.23105V23.6895H100.088V7.23105C99.3029 7.74098 98.3814 8.01292 97.439 8.01292C96.4967 8.01292 95.5752 7.74098 94.7896 7.23105Z" fill="white"/>
</svg>
