<svg width="120" height="32" viewBox="0 0 120 32" fill="none" xmlns="http://www.w3.org/2000/svg">
<path d="M49.398 26.5037H49.3448C49.3687 26.5037 49.3847 26.5302 49.4087 26.5328H49.4247L49.398 26.5064V26.5037ZM49.4087 26.5328C49.1609 26.5355 48.5374 26.6649 47.8792 26.6649C45.8009 26.6649 45.0814 25.7137 45.0814 24.4717V16.1983H49.3181C49.5579 16.1983 49.7444 15.9869 49.7444 15.6962V11.2041C49.7444 10.9663 49.5313 10.7549 49.3181 10.7549H45.0814V5.17935C45.0814 4.96795 44.9482 4.83583 44.7084 4.83583H38.9529C38.7131 4.83583 38.5799 4.96795 38.5799 5.17935V10.9134C38.5799 10.9134 35.6755 11.6269 35.489 11.6533C35.2758 11.7061 35.1426 11.8911 35.1426 12.1025V15.6962C35.1426 15.9869 35.3557 16.1983 35.5955 16.1983H38.5532V24.8654C38.5532 31.313 43.083 31.9736 46.1739 31.9736C47.5861 31.9736 49.2915 31.5244 49.5579 31.3922C49.7178 31.3394 49.7977 31.1544 49.7977 30.9695V27.0058C49.8014 26.8934 49.7641 26.7834 49.6926 26.6961C49.6212 26.6087 49.5204 26.5498 49.4087 26.5302V26.5328ZM112.549 20.7168C112.549 15.934 110.603 15.2998 108.552 15.5112C106.953 15.6169 105.674 16.4097 105.674 16.4097V25.711C105.674 25.711 106.98 26.6094 108.925 26.6623C111.669 26.7416 112.549 25.7639 112.549 20.7168ZM119.023 20.294C119.023 29.3576 116.066 31.9472 110.896 31.9472C106.527 31.9472 104.182 29.7539 104.182 29.7539C104.182 29.7539 104.075 30.9695 103.942 31.128C103.862 31.2865 103.729 31.3394 103.569 31.3394H99.6253C99.3589 31.3394 99.119 31.128 99.119 30.8902L99.1723 1.53279C99.1723 1.29497 99.3855 1.08358 99.6253 1.08358H105.301C105.541 1.08358 105.754 1.29497 105.754 1.53279V11.4947C105.754 11.4947 107.939 10.0943 111.136 10.0943L111.11 10.0414C114.307 10.0414 119.023 11.2305 119.023 20.294ZM95.7883 10.7549H90.1927C89.8996 10.7549 89.7397 10.9663 89.7397 11.2569V25.6317C89.7397 25.6317 88.2742 26.6623 86.2758 26.6623C84.2774 26.6623 83.6911 25.7639 83.6911 23.782V11.2305C83.6911 10.9927 83.478 10.7813 83.2382 10.7813H77.536C77.2962 10.7813 77.083 10.9927 77.083 11.2305V24.7333C77.083 30.5467 80.3604 32 84.8636 32C88.5673 32 91.5783 29.9653 91.5783 29.9653C91.5783 29.9653 91.7115 30.9959 91.7915 31.1544C91.8447 31.2865 92.0313 31.3922 92.2178 31.3922H95.7883C96.0814 31.3922 96.2413 31.1808 96.2413 30.943L96.2946 11.2041C96.2946 10.9663 96.0814 10.7549 95.7883 10.7549ZM32.6379 10.7284H26.9623C26.7225 10.7284 26.5093 10.9663 26.5093 11.2569V30.6524C26.5093 31.1808 26.8557 31.3658 27.3087 31.3658H32.4247C32.9576 31.3658 33.0908 31.128 33.0908 30.6524V11.1777C33.0908 10.9398 32.8777 10.7284 32.6379 10.7284ZM29.84 1.79704C27.7883 1.79704 26.1629 3.40892 26.1629 5.44359C26.1629 7.47826 27.7883 9.09014 29.84 9.09014C31.8385 9.09014 33.4639 7.47826 33.4639 5.44359C33.4639 3.40892 31.8385 1.79704 29.84 1.79704ZM73.7789 1.13643H68.1567C67.9169 1.13643 67.7037 1.34782 67.7037 1.58564V12.3932H58.8839V1.58564C58.8839 1.34782 58.6708 1.13643 58.431 1.13643H52.7554C52.5156 1.13643 52.3024 1.34782 52.3024 1.58564V30.943C52.3024 31.1808 52.5423 31.3922 52.7554 31.3922H58.431C58.6708 31.3922 58.8839 31.1808 58.8839 30.943V18.3915H67.7037L67.6504 30.943C67.6504 31.1808 67.8636 31.3922 68.1034 31.3922H73.7789C74.0187 31.3922 74.2319 31.1808 74.2319 30.943V1.58564C74.2319 1.34782 74.0187 1.13643 73.7789 1.13643ZM23.4984 14.1372V29.3047C23.4984 29.4104 23.4717 29.5954 23.3385 29.6482C23.3385 29.6482 20.0078 32 14.5187 32C7.88394 32 0.0234375 29.9389 0.0234375 16.3568C0.0234375 2.77473 6.89805 -0.0262399 13.6128 0.000184413C19.4216 0.000184413 21.7664 1.29497 22.1394 1.53279C22.246 1.66491 22.2993 1.77061 22.2993 1.90273L21.1802 6.60626C21.1802 6.84408 20.9404 7.13474 20.6473 7.05547C19.688 6.7648 18.2491 6.18347 14.8651 6.18347C10.9482 6.18347 6.73817 7.29328 6.73817 16.0397C6.73817 24.7862 10.735 25.8167 13.6128 25.8167C16.0642 25.8167 16.9435 25.526 16.9435 25.526V19.4485H13.0266C12.7335 19.4485 12.5203 19.2371 12.5203 18.9992V14.1372C12.5203 13.8994 12.7335 13.688 13.0266 13.688H22.9921C23.2852 13.688 23.4984 13.8994 23.4984 14.1372Z" fill="white"/>
</svg>
