<svg width="112" height="20" viewBox="0 0 112 20" fill="none" xmlns="http://www.w3.org/2000/svg">
<path d="M0 19.446V0.624348H4.77707V2.77539C5.29686 1.84258 6.07977 1.0883 7.02545 0.609251C7.97113 0.130197 9.03648 -0.0518018 10.0849 0.0865863C11.0881 0.161933 12.055 0.498576 12.8919 1.06388C13.7289 1.62919 14.4075 2.40398 14.862 3.31315C16.9851 1.16211 18.5775 0.0865863 20.7006 0.0865863C24.9469 0.0865863 27.6008 2.23763 27.6008 7.07748V19.446H22.293V9.22853C22.293 6.53972 21.7622 5.4642 19.6391 5.4642C17.5159 5.4642 16.4543 6.53972 16.4543 9.22853V19.446H10.6157V9.22853C10.6157 6.53972 10.0849 5.4642 8.49256 5.4642C6.90021 5.4642 5.30785 6.53972 5.30785 9.22853V19.446H0ZM33.9703 2.77539C35.3764 1.43527 37.1326 0.53218 39.0303 0.173392C40.928 -0.185397 42.8875 0.0151905 44.676 0.75133C46.4646 1.48747 48.007 2.72823 49.12 4.32623C50.2331 5.92424 50.8701 7.81234 50.9554 9.76629C50.9936 11.0517 50.7785 12.332 50.3229 13.5324C49.8672 14.7327 49.18 15.829 48.3015 16.7572C47.3709 17.8127 46.2233 18.6486 44.9394 19.206C43.6555 19.7635 42.2666 20.029 40.8705 19.9838C39.5579 19.9868 38.2605 19.6996 37.0687 19.1423C35.877 18.5851 34.8196 17.7711 33.9703 16.7572C33.0917 15.829 32.4045 14.7327 31.9488 13.5324C31.4932 12.332 31.2781 11.0517 31.3163 9.76629C31.2781 8.48083 31.4932 7.20055 31.9488 6.00023C32.4045 4.79991 33.0917 3.70362 33.9703 2.77539ZM40.8705 14.6061C42.1374 14.6061 43.3525 14.0962 44.2484 13.1886C45.1442 12.2809 45.6475 11.0499 45.6475 9.76629C45.6475 8.55399 45.1722 7.39135 44.3261 6.53413C43.48 5.6769 42.3324 5.19532 41.1359 5.19532C39.9393 5.19532 38.7917 5.6769 37.9456 6.53413C37.0995 7.39135 36.6242 8.55399 36.6242 9.76629C36.6169 10.9619 37.0467 12.118 37.8307 13.0117C38.6148 13.9053 39.6976 14.4733 40.8705 14.6061ZM54.6709 19.446V0.624348H59.9787V2.77539C61.0403 1.16211 62.6327 0.0865863 65.2866 0.0865863C69.0021 0.0865863 71.656 2.77539 71.656 7.07748V19.446H66.3482V9.22853C66.3482 6.53972 65.8174 5.4642 63.6942 5.4642C61.5711 5.4642 59.9787 6.53972 59.9787 9.22853V19.446H54.6709ZM95.0106 2.77539C96.4167 1.43527 98.1729 0.53218 100.071 0.173392C101.968 -0.185397 103.928 0.0151905 105.716 0.75133C107.505 1.48747 109.047 2.72823 110.16 4.32623C111.273 5.92424 111.91 7.81234 111.996 9.76629C112.034 11.0517 111.819 12.332 111.363 13.5324C110.908 14.7327 110.22 15.829 109.342 16.7572C108.471 17.7446 107.409 18.5405 106.222 19.0955C105.035 19.6505 103.748 19.9528 102.442 19.9838C101.041 20.0685 99.6394 19.8209 98.3494 19.2608C97.0594 18.7007 95.9162 17.8434 95.0106 16.7572C94.132 15.829 93.4448 14.7327 92.9891 13.5324C92.5334 12.332 92.3184 11.0517 92.3566 9.76629C92.3184 8.48083 92.5334 7.20055 92.9891 6.00023C93.4448 4.79991 94.132 3.70362 95.0106 2.77539ZM102.442 14.6061C103.614 14.4733 104.697 13.9053 105.481 13.0117C106.265 12.118 106.695 10.9619 106.688 9.76629C106.688 8.55399 106.212 7.39135 105.366 6.53413C104.52 5.6769 103.373 5.19532 102.176 5.19532C100.98 5.19532 99.832 5.6769 98.9859 6.53413C98.1398 7.39135 97.6645 8.55399 97.6645 9.76629C97.6645 11.0499 98.1678 12.2809 99.0637 13.1886C99.9595 14.0962 101.175 14.6061 102.442 14.6061ZM75.9023 19.446V15.6817L83.3333 5.4642H75.9023V0.624348H89.7027V4.92644L82.8025 14.6061H89.7027V19.446H75.9023Z" fill="white"/>
</svg>
