<svg width="101" height="31" viewBox="0 0 101 31" fill="none" xmlns="http://www.w3.org/2000/svg">
<path d="M76.7391 28.4987C76.5448 29.2881 76.3747 29.9083 76.2047 30.5688H72.2208V0H76.8687V11.277C77.1116 10.9709 77.233 10.8421 77.3383 10.7051C78.1319 9.61769 79.1602 8.90885 80.4882 8.63498C82.6016 8.22418 84.4073 9.1505 85.047 11.1723C85.46 12.4289 85.7272 13.7741 85.7596 15.0871C85.8244 18.4621 85.7758 21.8291 85.6544 25.2042C85.6058 26.2352 85.29 27.2904 84.8932 28.257C83.5895 31.4468 79.3303 31.9301 77.2169 29.1672C77.0873 28.9981 76.9658 28.8128 76.7391 28.4987ZM76.9658 25.6794C76.9658 26.5896 77.4517 27.1454 78.3667 27.3548C79.2655 27.5643 79.9943 27.2179 80.3587 26.3882C80.5125 26.0419 80.6664 25.6794 80.6744 25.3169C80.7635 21.9016 80.8445 18.4863 80.8688 15.0629C80.8688 14.4265 80.7149 13.766 80.5206 13.1458C80.1562 12.0261 79.1521 11.6959 78.1642 12.3483C77.4193 12.8478 76.9658 13.5566 76.9658 14.499V25.6794ZM64.3339 9.06995H69.2004V30.5849H65.4027C65.2651 29.7714 65.1274 28.9336 64.9655 27.9509C64.7064 28.3295 64.5525 28.5712 64.3906 28.8128C63.1274 30.6252 61.3378 31.2454 59.2244 30.9152C57.4187 30.6252 56.3336 29.2397 56.0907 26.9682C56.0178 26.2916 55.9855 25.6069 55.9855 24.9303C55.9693 19.8959 55.9855 14.8454 55.9855 9.81101V9.05384H60.9087V9.93184C60.9087 14.7971 60.8925 19.6542 60.9249 24.5195C60.9249 25.2122 60.9978 25.9291 61.1192 26.6218C61.2569 27.3307 61.7751 27.5884 62.4715 27.5401C63.597 27.4515 64.3744 26.6218 64.3744 25.5102V10.0204C64.3339 9.7063 64.3339 9.41632 64.3339 9.06995ZM30.8268 9.05384H35.7177V9.96406C35.7177 14.8051 35.7015 19.6381 35.7338 24.4631C35.7338 25.1558 35.7986 25.8727 35.9444 26.5493C36.1306 27.3468 36.6003 27.6046 37.4019 27.4998C38.5113 27.3468 39.1833 26.5816 39.1914 25.4619V9.08606H44.058V30.5849H40.2765C40.1388 29.7875 40.0012 28.9658 39.823 27.9268C39.5801 28.2892 39.4425 28.4987 39.3048 28.7161C38.0416 30.5607 36.2683 31.2374 34.1063 30.9071C32.3734 30.6493 31.3127 29.3767 30.9888 27.2904C30.8997 26.6379 30.8349 25.9935 30.8349 25.3411C30.8187 20.1134 30.8187 14.8615 30.8187 9.6338L30.8268 9.05384ZM28.3166 20.5403C28.3004 21.2653 28.2518 21.9902 28.2114 22.7152C28.0251 24.89 27.936 27.9751 26.1708 29.5619C25.0453 30.5607 23.6201 30.9232 22.1464 30.9715C21.4905 30.9877 20.8265 30.9877 20.1706 30.8991C17.0693 30.4319 15.628 29.0706 15.1098 25.6794C14.5186 21.7647 14.4701 17.7855 15.1745 13.8707C15.9033 9.81907 18.4135 8.38528 22.3165 8.65109C25.9603 8.90885 27.5879 11.2851 28.017 14.6682C28.2518 16.6095 28.3652 18.5749 28.3166 20.5403ZM23.361 19.7992C23.361 18.4218 23.3934 17.0364 23.3448 15.659C23.3124 14.8615 23.2072 14.056 23.0371 13.2666C22.8428 12.3564 22.2598 11.9214 21.531 11.9375C20.8184 11.9536 20.3164 12.3886 20.0573 13.2344C19.9682 13.5485 19.871 13.8707 19.871 14.1849C19.871 16.3436 19.8548 18.5104 19.8386 20.6692C19.8224 22.6829 19.5633 24.7933 20.203 26.7185C20.3974 27.3065 20.8994 27.6287 21.5553 27.6287C22.195 27.6287 22.6161 27.3146 22.8509 26.7507C23.0371 26.3157 23.1991 25.8405 23.1991 25.3733C23.2557 23.5207 23.361 21.6599 23.361 19.7992ZM7.96785 15.7476C8.39701 13.6613 8.80188 11.6234 9.24724 9.57742C9.80596 6.97565 10.4295 4.37388 10.9801 1.76405C11.1177 1.1277 11.3769 0.974657 11.9842 0.990767C13.2878 1.0391 14.6158 1.00688 16.0086 1.00688C15.5551 2.66621 15.1098 4.245 14.6725 5.79961C13.2878 10.681 11.9032 15.5784 10.5347 20.4759C10.4295 20.8544 10.3809 21.2653 10.3809 21.668C10.3647 24.3423 10.3809 27.0085 10.3809 29.6827V30.5527H5.6277C5.6115 30.311 5.57911 30.0694 5.57911 29.8277C5.57911 28.3134 5.45765 26.791 5.59531 25.2928C5.9435 21.6922 4.79366 18.3816 3.86246 15.0307C2.63166 10.6004 1.38466 6.15403 0.153853 1.72377C0.0890734 1.51434 0.0647792 1.2888 0 1.03104H4.85035C5.87062 5.92044 6.89899 10.8098 7.96785 15.7476ZM100.967 21.3619H92.772C92.861 22.9971 92.8934 24.5517 93.0635 26.0902C93.1849 27.1615 93.776 27.6207 94.7072 27.6287C95.6789 27.6448 96.2458 27.1615 96.4725 26.0983C96.5454 25.7519 96.5939 25.4055 96.6263 25.0511C96.6587 24.737 96.6749 24.3987 96.6992 23.9476C98.0839 24.0201 99.4361 24.1006 100.772 24.157C101.55 26.4527 100.149 29.4008 97.7924 30.311C95.9381 31.036 94.0352 31.036 92.1404 30.4802C90.7395 30.0694 89.695 29.1833 89.2253 27.822C88.788 26.5493 88.3751 25.2203 88.286 23.8912C88.0431 20.6128 87.954 17.3022 88.4561 14.0157C88.5451 13.468 88.699 12.9444 88.869 12.4128C89.5492 10.2218 91.031 8.87663 93.3226 8.65109C94.5696 8.53027 95.8571 8.5786 97.0879 8.78803C99.0798 9.13439 100.141 10.5601 100.602 12.4289C100.813 13.3069 100.967 14.2091 100.999 15.1032C101.007 17.1572 100.967 19.1951 100.967 21.3619ZM96.3105 18.5346C96.3105 16.9155 96.3267 15.3931 96.2943 13.8627C96.2943 13.5002 96.1567 13.1216 96.019 12.7753C95.7437 12.0986 95.1688 11.9134 94.4805 11.9134C93.7922 11.9134 93.355 12.2597 93.1849 12.88C92.6667 14.7407 92.8367 16.6417 92.8529 18.5507C94.0918 18.5346 95.2174 18.5346 96.3105 18.5346Z" fill="white"/>
<path d="M47.815 4.9538H42.9971V1.07128H57.3781V4.92963H52.5925V30.5527H47.8231L47.815 4.9538Z" fill="white"/>
</svg>
