<svg width="100" height="35" viewBox="0 0 100 35" fill="none" xmlns="http://www.w3.org/2000/svg">
<path d="M14.4532 15.8629L16.2452 21.8759L15.0762 16.1989L14.4532 15.8629Z" fill="white"/>
<path d="M17.3977 17.2679H17.3907L17.7057 17.7229L21.5347 18.1289L17.3907 17.2609L17.3977 17.2679Z" fill="white"/>
<path fill-rule="evenodd" clip-rule="evenodd" d="M0 17.5C0 7.833 7.833 0 17.5 0C27.167 0 35 7.833 35 17.5C35 27.167 27.167 35 17.5 35C7.833 35 0 27.167 0 17.5ZM18.34 23.443L25.522 25.382L25.515 25.354H25.55L22.484 18.032C22.4757 18.0121 22.467 17.9912 22.458 17.9695C22.0478 16.9823 20.869 14.1451 18.102 12.789C15.6831 11.5986 13.2931 12.197 12.0849 12.4994C11.9645 12.5296 11.8558 12.5568 11.76 12.579L8.197 9.618L8.05 9.793L11.683 12.817C11.585 14.105 11.382 17.255 13.006 19.894C14.6315 22.5265 17.1481 23.148 18.1647 23.3991C18.2294 23.4151 18.2881 23.4296 18.34 23.443Z" fill="white"/>
<path d="M42.8218 23.5V11.26H44.2798V22.186H50.2018V23.5H42.8218ZM54.5505 23.68C52.8225 23.68 51.6345 22.438 51.6345 20.35V14.5H53.0745V20.26C53.0745 21.682 53.6865 22.456 55.0365 22.456C56.4405 22.456 57.3585 21.664 57.3585 19.81V14.5H58.7985V23.5H57.3945L57.3765 21.934C56.7285 22.942 55.8825 23.68 54.5505 23.68ZM60.9793 23.5V14.5H62.3653L62.4013 16.066C63.0493 15.058 63.8953 14.32 65.2453 14.32C66.5233 14.32 67.5313 14.986 67.9273 16.3C68.5573 15.184 69.4753 14.32 70.9333 14.32C72.5893 14.32 73.7953 15.454 73.7953 17.65V23.5H72.3553V17.74C72.3553 16.318 71.7433 15.544 70.3933 15.544C69.0073 15.544 68.1073 16.336 68.1073 18.19V23.5H66.6673V17.74C66.6673 16.318 66.0553 15.544 64.7053 15.544C63.3193 15.544 62.4193 16.336 62.4193 18.19V23.5H60.9793ZM75.9121 23.5V14.5H77.2981L77.3341 16.066C77.9821 15.058 78.8281 14.32 80.1781 14.32C81.4561 14.32 82.4641 14.986 82.8601 16.3C83.4901 15.184 84.4081 14.32 85.8661 14.32C87.5221 14.32 88.7281 15.454 88.7281 17.65V23.5H87.2881V17.74C87.2881 16.318 86.6761 15.544 85.3261 15.544C83.9401 15.544 83.0401 16.336 83.0401 18.19V23.5H81.6001V17.74C81.6001 16.318 80.9881 15.544 79.6381 15.544C78.2521 15.544 77.3521 16.336 77.3521 18.19V23.5H75.9121ZM94.463 23.68C92.051 23.68 90.359 21.916 90.359 19C90.359 16.084 92.051 14.32 94.463 14.32C96.893 14.32 98.585 16.084 98.585 19C98.585 21.916 96.893 23.68 94.463 23.68ZM91.817 19.324C91.817 21.358 92.861 22.474 94.463 22.474C96.065 22.474 97.109 21.358 97.109 19.324V18.676C97.109 16.642 96.065 15.526 94.463 15.526C92.861 15.526 91.817 16.642 91.817 18.676V19.324Z" fill="white"/>
</svg>
