<svg width="112" height="26" viewBox="0 0 112 26" fill="none" xmlns="http://www.w3.org/2000/svg">
<path fill-rule="evenodd" clip-rule="evenodd" d="M91.1888 7.79673C91.6169 8.55975 91.757 9.42787 91.8032 10.4038L91.864 11.7046V20.8008L91.9261 22.103C92.0503 24.2296 93.5685 25.8021 95.643 25.9358L96.897 26V11.7046L96.9591 10.4038C97.0107 9.43879 97.1494 8.55429 97.5841 7.78581C98.0271 6.99758 98.663 6.34361 99.428 5.88957C100.193 5.43552 101.06 5.19737 101.943 5.19903C102.825 5.20069 103.691 5.4421 104.455 5.89902C105.218 6.35594 105.852 7.0123 106.292 7.80219C106.72 8.56521 106.853 9.44971 106.905 10.4038L106.967 11.7005V20.8008L107.029 22.103C107.159 24.2405 108.665 25.813 110.746 25.9358L112 26V10.4038C112 7.64599 110.94 5.00105 109.052 3.05059C107.165 1.10012 104.605 0.00381942 101.935 0.0027336C100.506 0.00117694 99.0937 0.314636 97.7914 0.92217C96.4892 1.5297 95.3274 2.41732 94.3838 3.52573C93.4398 2.41776 92.278 1.53036 90.9758 0.922642C89.6737 0.314927 88.2612 0.000860603 86.8323 0.00136837C84.7419 0.00136837 82.8022 0.656556 81.1954 1.78812C80.215 0.65792 78.0216 0.00136837 76.7623 0.00136837V26L78.0216 25.9358C80.1278 25.7925 81.65 24.2624 81.7319 22.103L81.7993 20.8008V11.7046L81.8614 10.4038C81.9143 9.42241 82.0464 8.55975 82.4758 7.79127C82.9192 7.00353 83.5548 6.34972 84.3193 5.89511C85.0837 5.44051 85.9502 5.20102 86.8323 5.20055C87.7151 5.20075 88.5822 5.44071 89.3469 5.89639C90.1115 6.35206 90.7467 7.00742 91.1888 7.79673ZM5.03301 25.9372L6.29225 26H25.1677L25.1056 24.7033C24.9351 22.5657 23.4698 21.0042 21.3939 20.865L20.1347 20.8008H8.81074L23.9085 5.19918L23.8463 3.90383C23.7486 1.74444 22.2211 0.184275 20.1347 0.0655216L18.8754 0.00682815L0 0.00136837L0.0621033 1.30219C0.227272 3.41926 1.71379 5.01355 3.77245 5.1364L5.03301 5.20055H16.357L1.25924 20.8022L1.32135 22.103C1.44555 24.246 2.94264 25.798 5.03301 25.9358V25.9372ZM71.8218 3.80691C72.9905 5.01398 73.9177 6.44707 74.5502 8.02431C75.1827 9.60156 75.5083 11.2921 75.5083 12.9993C75.5083 14.7066 75.1827 16.3971 74.5502 17.9743C73.9177 19.5516 72.9905 20.9847 71.8218 22.1917C69.4606 24.629 66.2592 25.998 62.9212 25.998C59.5833 25.998 56.3819 24.629 54.0206 22.1917C49.1065 17.1154 49.1065 8.88324 54.0206 3.80691C55.1883 2.60024 56.5746 1.64298 58.1004 0.989793C59.6262 0.336601 61.2616 0.00026946 62.9133 3.1337e-06C64.5676 -0.00118334 66.2059 0.334555 67.7345 0.988015C69.2632 1.64148 70.6521 2.59983 71.8218 3.80828V3.80691ZM68.2608 7.48824C69.6762 8.95152 70.4713 10.9355 70.4713 13.0041C70.4713 15.0727 69.6762 17.0567 68.2608 18.52C66.8443 19.9821 64.9237 20.8035 62.9212 20.8035C60.9187 20.8035 58.9982 19.9821 57.5817 18.52C56.1662 17.0567 55.3711 15.0727 55.3711 13.0041C55.3711 10.9355 56.1662 8.95152 57.5817 7.48824C58.9982 6.02607 60.9187 5.20472 62.9212 5.20472C64.9237 5.20472 66.8443 6.02607 68.2608 7.48824ZM36.5022 3.1337e-06C38.1539 0.000448721 39.7894 0.336995 41.3152 0.990423C42.841 1.64385 44.2273 2.60136 45.3949 3.80828C50.3103 8.88324 50.3103 17.1168 45.3949 22.1917C43.0336 24.629 39.8322 25.998 36.4943 25.998C33.1563 25.998 29.9549 24.629 27.5937 22.1917C22.6796 17.1154 22.6796 8.88324 27.5937 3.80691C28.7614 2.60024 30.1477 1.64298 31.6735 0.989793C33.1993 0.336601 34.8347 0.00026946 36.4864 3.1337e-06H36.5022ZM41.8338 7.48551C43.2497 8.94885 44.045 10.9331 44.045 13.002C44.045 15.071 43.2497 17.0553 41.8338 18.5186C40.4173 19.9808 38.4968 20.8021 36.4943 20.8021C34.4918 20.8021 32.5712 19.9808 31.1547 18.5186C29.7393 17.0553 28.9442 15.0713 28.9442 13.0027C28.9442 10.9341 29.7393 8.95016 31.1547 7.48688C32.5712 6.0247 34.4918 5.20336 36.4943 5.20336C38.4968 5.20336 40.4173 6.0247 41.8338 7.48688V7.48551Z" fill="white"/>
</svg>
