<svg width="36" height="35" viewBox="0 0 36 35" fill="none" xmlns="http://www.w3.org/2000/svg">
<path d="M14.9766 15.8629L16.7686 21.8759L15.5996 16.1989L14.9766 15.8629Z" fill="#FFF549"/>
<path d="M17.9211 17.2679H17.9141L18.2291 17.7229L22.0581 18.1289L17.9141 17.2609L17.9211 17.2679Z" fill="#FFF549"/>
<path fill-rule="evenodd" clip-rule="evenodd" d="M0.523438 17.5C0.523438 7.833 8.35644 0 18.0234 0C27.6904 0 35.5234 7.833 35.5234 17.5C35.5234 27.167 27.6904 35 18.0234 35C8.35644 35 0.523438 27.167 0.523438 17.5ZM18.8634 23.443L26.0454 25.382L26.0384 25.354H26.0734L23.0074 18.032C22.9991 18.0121 22.9905 17.9912 22.9814 17.9695C22.5713 16.9823 21.3925 14.1451 18.6254 12.789C16.2065 11.5986 13.8166 12.197 12.6083 12.4994C12.4879 12.5296 12.3792 12.5568 12.2834 12.579L8.72044 9.618L8.57344 9.793L12.2064 12.817C12.1084 14.105 11.9054 17.255 13.5294 19.894C15.155 22.5265 17.6715 23.148 18.6882 23.3991C18.7529 23.4151 18.8115 23.4296 18.8634 23.443Z" fill="#FFF549"/>
</svg>
