<svg width="166" height="38" viewBox="0 0 166 38" fill="none" xmlns="http://www.w3.org/2000/svg">
<path d="M17.4124 18.5674C17.4124 14.9858 14.7451 12.4686 11.4688 12.4686C8.19248 12.4686 5.52524 15.0282 5.52524 18.5674C5.52524 22.0641 8.19248 24.6662 11.4688 24.6662C14.7484 24.6629 17.4124 22.1489 17.4124 18.5674ZM17.4592 29.2273V26.4553C15.8428 28.3751 13.4366 29.5668 10.5552 29.5668C4.56811 29.5668 0.0234375 24.8751 0.0234375 18.5674C0.0234375 12.2988 4.74214 7.52556 10.689 7.52556C13.4869 7.52556 15.8462 8.72051 17.4625 10.5946V7.90755H22.8372V29.2273H17.4592Z" fill="white"/>
<path d="M48.9437 24.4932C47.063 24.4932 46.5409 23.8107 46.5409 22.0216V12.5567H49.9945V7.90754H46.5409V2.70659H41.0324V7.90754H33.9376V6.61138C33.9376 4.81897 34.6371 4.1366 36.5614 4.1366H37.7695V0H35.119C30.5743 0 28.4325 1.4496 28.4325 5.88331V7.90427H25.3737V12.5535H28.4325V29.2239H33.941V12.5535H41.0357V23.001C41.0357 27.3498 42.7392 29.2273 47.1969 29.2273H50.0381V24.4932H48.9437Z" fill="white"/>
<path d="M68.699 16.6476C68.3074 13.8756 65.9882 12.2138 63.2808 12.2138C60.57 12.2138 58.3413 13.8332 57.7757 16.6476H68.699ZM57.7288 19.9745C58.1238 23.1283 60.4396 24.9208 63.3678 24.9208C65.6837 24.9208 67.4775 23.8531 68.5249 22.1488H74.1639C72.8521 26.6675 68.699 29.5667 63.2374 29.5667C56.6378 29.5667 52.0062 25.048 52.0062 18.6097C52.0062 12.1714 56.9023 7.52221 63.3712 7.52221C69.8837 7.52221 74.6024 12.2139 74.6024 18.6097C74.6024 19.0799 74.5589 19.5468 74.4718 19.9745H57.7288Z" fill="white"/>
<path d="M109.624 18.5674C109.624 15.1131 106.957 12.4686 103.681 12.4686C100.405 12.4686 97.7373 15.0282 97.7373 18.5674C97.7373 22.0641 100.405 24.6662 103.681 24.6662C106.957 24.6629 109.624 22.0216 109.624 18.5674ZM92.3159 7.90755H97.6904V10.6794C99.3069 8.71723 101.71 7.52556 104.594 7.52556C110.495 7.52556 115.126 12.2596 115.126 18.5249C115.126 24.7935 110.408 29.57 104.464 29.57C101.71 29.57 99.4374 28.5024 97.8645 26.7133V38H92.3159V7.90755Z" fill="white"/>
<path d="M134.5 18.5674C134.5 14.9858 131.836 12.4686 128.556 12.4686C125.28 12.4686 122.612 15.0282 122.612 18.5674C122.612 22.0641 125.28 24.6662 128.556 24.6662C131.836 24.6629 134.5 22.1489 134.5 18.5674ZM134.547 29.2273V26.4553C132.93 28.3751 130.524 29.5668 127.642 29.5668C121.655 29.5668 117.111 24.8751 117.111 18.5674C117.111 12.2988 121.829 7.52556 127.773 7.52556C130.571 7.52556 132.93 8.72051 134.547 10.5946V7.90755H139.922V29.2273H134.547Z" fill="white"/>
<path d="M82.6274 9.99707C82.6274 9.99707 83.9962 7.52556 87.346 7.52556C88.7784 7.52556 89.7055 8.00549 89.7055 8.00549V13.4448C89.7055 13.4448 87.6841 12.227 85.8267 12.4718C83.9694 12.7167 82.7947 14.3818 82.8015 16.6084V29.2305H77.2528V7.91082H82.6274V9.99707Z" fill="white"/>
<path d="M165.023 7.9075L151.453 37.9313H145.731L151.059 26.3247L142.05 7.9075H148.536L153.806 20.2128L159.214 7.9075H165.023Z" fill="white"/>
</svg>
