<svg width="140" height="25" viewBox="0 0 140 25" fill="none" xmlns="http://www.w3.org/2000/svg">
<path fill-rule="evenodd" clip-rule="evenodd" d="M80.9237 4.62215V1.43067C80.9237 0.947664 81.2894 0.623625 81.7282 0.623625H95.9701C96.4271 0.623625 96.7928 0.953779 96.7928 1.43067V4.1636C96.7867 4.62215 96.4028 5.22132 95.7202 6.16898L88.3403 16.74C91.0826 16.6728 93.9773 17.0824 96.4637 18.4886C97.0244 18.8065 97.1767 19.2712 97.2194 19.7297V23.1352C97.2194 23.5999 96.7075 24.144 96.1712 23.8628C91.7895 21.5578 85.9697 21.3071 81.1248 23.8872C80.6312 24.1562 80.1132 23.6182 80.1132 23.1535V19.9193C80.1132 19.3996 80.1193 18.5131 80.6373 17.7244L89.1873 5.42308H81.7464C81.2894 5.42308 80.9237 5.09904 80.9237 4.62215Z" fill="white"/>
<path fill-rule="evenodd" clip-rule="evenodd" d="M28.9714 24.5353H24.6385C24.2241 24.5048 23.8951 24.193 23.8646 23.7955V1.48574C23.8646 1.03942 24.2363 0.684809 24.6995 0.684809H28.7399C29.1604 0.703139 29.4955 1.02719 29.526 1.43071V4.34707H29.6052C30.6595 1.52853 32.6401 0.214033 35.3093 0.214033C38.0212 0.214033 39.7153 1.52853 40.9342 4.34707C41.9824 1.52853 44.3652 0.214033 46.9186 0.214033C48.7346 0.214033 50.7213 0.96605 51.934 2.6535C53.3052 4.53048 53.0249 7.25731 53.0249 9.64787L53.0188 23.7283C53.0188 24.1746 52.647 24.5353 52.1839 24.5353H47.8571C47.4244 24.5048 47.077 24.1563 47.077 23.7283V11.9039C47.077 10.9624 47.1623 8.61461 46.9552 7.72197C46.6322 6.22405 45.6632 5.80219 44.4078 5.80219C43.3596 5.80219 42.2627 6.50529 41.8178 7.63026C41.3729 8.75523 41.4156 10.6383 41.4156 11.9039V23.7283C41.4156 24.1746 41.0439 24.5353 40.5807 24.5353H36.2539C35.8151 24.5048 35.4739 24.1563 35.4739 23.7283L35.4678 11.9039C35.4678 9.41553 35.8761 5.75328 32.7985 5.75328C29.6845 5.75328 29.8063 9.32382 29.8063 11.9039V23.7283C29.8063 24.1746 29.4346 24.5353 28.9714 24.5353Z" fill="white"/>
<path fill-rule="evenodd" clip-rule="evenodd" d="M109.054 0.214033C115.483 0.214033 118.963 5.75327 118.963 12.7965C118.963 19.6014 115.118 25 109.054 25C102.74 25 99.3034 19.4608 99.3034 12.5581C99.3034 5.61265 102.783 0.214033 109.054 0.214033ZM109.091 4.76893C105.897 4.76893 105.696 9.13429 105.696 11.855C105.696 14.5818 105.653 20.4023 109.054 20.4023C112.412 20.4023 112.57 15.7068 112.57 12.8455C112.57 10.9624 112.491 8.71243 111.924 6.92715C111.437 5.37421 110.468 4.76893 109.091 4.76893Z" fill="white"/>
<path fill-rule="evenodd" clip-rule="evenodd" d="M127.3 24.5353H122.985C122.553 24.5048 122.205 24.1563 122.205 23.7283L122.199 1.41237C122.236 1.00273 122.595 0.684809 123.034 0.684809H127.05C127.428 0.703139 127.739 0.959937 127.824 1.30843V4.72002H127.903C129.116 1.66916 130.816 0.214033 133.808 0.214033C135.752 0.214033 137.648 0.917139 138.867 2.84303C140 4.62831 140 7.63026 140 9.78848V23.8322C139.951 24.2235 139.592 24.5353 139.165 24.5353H134.82C134.424 24.5048 134.095 24.2113 134.052 23.8322V11.7144C134.052 9.27491 134.332 5.70436 131.34 5.70436C130.286 5.70436 129.317 6.41358 128.836 7.48964C128.226 8.85305 128.147 10.2104 128.147 11.7144V23.7283C128.141 24.1746 127.763 24.5353 127.3 24.5353Z" fill="white"/>
<path fill-rule="evenodd" clip-rule="evenodd" d="M69.5704 13.8787C69.5704 15.5722 69.6131 16.9846 68.7599 18.4886C68.0713 19.7114 66.9744 20.4634 65.7616 20.4634C64.0979 20.4634 63.1229 19.1917 63.1229 17.3147C63.1229 13.6097 66.432 12.9371 69.5704 12.9371V13.8787ZM73.9399 24.4742C73.6535 24.731 73.2391 24.7493 72.9161 24.5781C71.4779 23.3798 71.2159 22.8234 70.4297 21.6801C68.053 24.1134 66.3649 24.841 63.2874 24.841C59.6371 24.841 56.8033 22.585 56.8033 18.0667C56.8033 14.539 58.7047 12.1362 61.4226 10.9623C63.775 9.92295 67.0597 9.73954 69.5704 9.45218V8.8897C69.5704 7.85643 69.6497 6.63364 69.0403 5.74101C68.5162 4.94008 67.5045 4.60992 66.6087 4.60992C64.9572 4.60992 63.4885 5.45976 63.129 7.22058C63.0559 7.61188 62.7694 7.99706 62.3733 8.0154L58.1745 7.56296C57.821 7.48349 57.4249 7.19613 57.5285 6.65199C58.4914 1.54072 63.0985 0 67.2181 0C69.3267 0 72.0812 0.562485 73.7449 2.16434C75.8535 4.13915 75.6524 6.77426 75.6524 9.64171V16.416C75.6524 18.4519 76.4934 19.3446 77.2856 20.4451C77.5598 20.8364 77.6208 21.3071 77.2673 21.6006C76.3836 22.3404 74.8114 23.716 73.946 24.4864L73.9399 24.4742Z" fill="white"/>
<path fill-rule="evenodd" clip-rule="evenodd" d="M12.7671 13.8787C12.7671 15.5722 12.8098 16.9846 11.9566 18.4886C11.268 19.7114 10.1772 20.4634 8.95833 20.4634C7.29464 20.4634 6.32568 19.1917 6.32568 17.3147C6.32568 13.6097 9.63478 12.9371 12.7671 12.9371V13.8787ZM17.1366 24.4742C16.8502 24.7309 16.4358 24.7493 16.1128 24.5781C14.6746 23.3798 14.4186 22.8234 13.6264 21.6801C11.2497 24.1134 9.56774 24.841 6.48412 24.841C2.83985 24.841 0 22.5849 0 18.0667C0 14.539 1.90745 12.1362 4.61933 10.9623C6.97165 9.92294 10.2564 9.73953 12.7671 9.45217V8.88969C12.7671 7.85643 12.8464 6.63364 12.2431 5.741C11.7129 4.94007 10.7012 4.60992 9.8115 4.60992C8.16001 4.60992 6.68523 5.45976 6.32568 7.22058C6.25255 7.61187 5.96613 7.99705 5.5761 8.01539L1.37117 7.56296C1.01771 7.48348 0.627692 7.19612 0.725197 6.65198C1.69416 1.54072 6.29521 0 10.4148 0C12.5234 0 15.2779 0.562485 16.9416 2.16434C19.0502 4.13915 18.8491 6.77426 18.8491 9.64171V16.416C18.8491 18.4519 19.69 19.3445 20.4823 20.4451C20.7626 20.8363 20.8235 21.3071 20.4701 21.6006C19.5864 22.3404 18.0142 23.716 17.1488 24.4864L17.1366 24.4742Z" fill="white"/>
</svg>
