<svg width="10" height="9" viewBox="0 0 10 9" fill="none" xmlns="http://www.w3.org/2000/svg">
<path d="M0.0078125 1.04543C0.0078125 0.742395 0.120424 0.492406 0.345646 0.295465C0.570869 0.0984705 0.863646 0 1.22403 0C1.57798 0 1.86431 0.096988 2.08309 0.290912C2.30831 0.490923 2.42092 0.7515 2.42092 1.07275C2.42092 1.36366 2.31153 1.60608 2.09276 1.8C1.86753 2.00001 1.57153 2.10002 1.2047 2.10002H1.19509C0.841146 2.10002 0.554813 2.00001 0.335979 1.8C0.117201 1.59999 0.0078125 1.34847 0.0078125 1.04543ZM0.133313 9V2.92728H2.27615V9H0.133313ZM3.46342 9H5.60626V5.60907C5.60626 5.39693 5.63203 5.23334 5.68348 5.11819C5.77359 4.91209 5.91031 4.73786 6.0937 4.59545C6.27709 4.45304 6.50715 4.38184 6.78387 4.38184C7.50459 4.38184 7.86498 4.83941 7.86498 5.75455V9H10.0078V5.51817C10.0078 4.62118 9.78259 3.94089 9.33215 3.47728C8.8817 3.01362 8.28648 2.78179 7.54642 2.78179C6.71631 2.78179 6.06959 3.11818 5.60626 3.79091V3.80907H5.59659L5.60626 3.79091V2.92728H3.46342C3.47626 3.1212 3.4827 3.72425 3.4827 4.73633C3.4827 5.74846 3.47626 7.16967 3.46342 9Z" fill="#ECE5DB"/>
</svg>
