<svg width="114" height="43" viewBox="0 0 114 43" fill="none" xmlns="http://www.w3.org/2000/svg">
<path d="M60.3174 15.1714C60.542 14.9334 60.8114 14.7421 61.1103 14.6085C61.4091 14.475 61.7315 14.4019 62.0588 14.3933C62.386 14.3848 62.7118 14.4411 63.0172 14.5589C63.3226 14.6767 63.6016 14.8538 63.8383 15.0798C64.0749 15.3058 64.2644 15.5764 64.3959 15.876C64.5274 16.1755 64.5983 16.4981 64.6044 16.8252C64.6106 17.1522 64.5519 17.4772 64.4318 17.7815C64.3117 18.0858 64.1325 18.3633 63.9045 18.5981C63.4484 19.0678 62.8249 19.3383 62.17 19.3507C61.5151 19.363 60.8819 19.1161 60.4084 18.6638C59.935 18.2115 59.6597 17.5906 59.6427 16.9363C59.6256 16.2821 59.8682 15.6477 60.3174 15.1714ZM74.5353 36.9852C74.4694 35.0743 73.9032 33.0559 72.4586 31.7229C70.846 30.2353 68.5124 29.5527 66.343 29.5527H56.6725C55.7176 29.5527 54.8729 28.8405 54.8729 27.9616C54.8729 27.236 55.3652 26.6044 56.0672 26.423C56.0646 26.4216 56.2327 26.38 56.4102 26.3222C58.175 27.1349 60.0986 27.5453 62.0417 27.5235C65.0235 27.5235 68.0108 26.6528 70.1991 24.621C72.3309 22.6416 73.3262 19.8747 73.3262 17.042C73.3262 14.2093 72.3309 11.4451 70.1991 9.46701C69.5773 8.89075 68.8844 8.39625 68.1372 7.99556C70.191 8.46858 72.3107 7.88268 73.7687 5.38323L69.6597 2.44973L66.234 7.19063C64.8775 6.76573 63.4633 6.55358 62.0417 6.56174C59.0612 6.56174 56.0713 7.43251 53.883 9.46433C51.7525 11.4437 50.7586 14.2106 50.7586 17.0406C50.7586 19.8707 51.7525 22.6402 53.883 24.6196C54.0699 24.7903 54.2596 24.9529 54.4573 25.1088L54.0565 25.3197C53.0523 25.8944 52.1408 26.6174 51.3531 27.4644C50.0027 28.8929 48.6523 31.0322 48.6523 33.8797C48.6523 33.8797 48.464 39.9536 55.4849 39.9536H60.5703C61.7404 39.9536 62.9348 40.6927 62.9348 41.8551C62.9348 42.2623 62.8164 42.66 62.5945 43H72.3214C73.7871 41.3422 74.5771 39.1954 74.5353 36.9838V36.9852ZM84.9993 15.1687C85.3489 14.8339 85.7892 14.6091 86.2655 14.5222C86.7419 14.4353 87.2333 14.4902 87.6787 14.68C88.1241 14.8699 88.5039 15.1863 88.7708 15.59C89.0377 15.9936 89.18 16.4668 89.18 16.9506C89.18 17.4344 89.0377 17.9075 88.7708 18.3112C88.5039 18.7149 88.1241 19.0313 87.6787 19.2212C87.2333 19.411 86.7419 19.4659 86.2655 19.379C85.7892 19.2921 85.3489 19.0673 84.9993 18.7325C84.5581 18.2437 84.3139 17.6088 84.3139 16.9506C84.3139 16.2924 84.5581 15.6575 84.9993 15.1687ZM102.229 36.9838C102.164 35.073 101.596 33.0546 100.153 31.7216C98.5393 30.234 96.2058 29.5513 94.039 29.5513L82.8137 29.4707C82.1049 29.4707 81.5656 29.0299 81.5656 28.3769C81.5656 27.8393 81.8332 27.0384 82.5124 26.9054C83.8547 27.322 85.2522 27.5289 86.6577 27.5222C89.6409 27.5222 92.6295 26.6514 94.8164 24.6196C96.9469 22.6402 97.9422 19.8733 97.9422 17.0406C97.9422 14.2079 96.9469 11.4437 94.8164 9.46567C94.1942 8.88978 93.5008 8.39574 92.7532 7.99556C94.807 8.46858 96.9267 7.88268 98.3847 5.38323L94.2784 2.44973L90.85 7.19063C89.4935 6.76573 88.0793 6.55358 86.6577 6.56174C83.6772 6.56174 80.6873 7.43251 78.499 9.46433C76.3712 11.4437 75.3746 14.2106 75.3746 17.0406C75.3746 19.8707 76.3699 22.6402 78.499 24.6196C79.1244 25.1974 79.8225 25.692 80.5743 26.0924C80.0282 26.5063 79.5185 26.9659 79.0491 27.4631C77.696 28.8929 76.3457 31.0322 76.3457 33.8797C76.3457 33.8797 76.1587 39.9536 83.1796 39.9536H88.265C89.4364 39.9536 90.6268 40.6927 90.6268 41.8551C90.6268 42.2623 90.5111 42.6587 90.2892 43H100.015C101.481 41.3427 102.272 39.1956 102.229 36.9838ZM114 33.8662V24.801C111.903 25.0658 111.176 23.5956 111.176 22.139V0H100.784V23.7945C100.784 26.7482 101.228 29.2127 102.3 30.7648C103.946 33.1245 106.178 34.6685 110.612 34.6886C111.43 34.651 112.796 34.4911 114 33.8689V33.8662ZM37.5171 22.8418C36.9795 23.435 36.251 23.8217 35.458 23.9346C34.6649 24.0476 33.8573 23.8797 33.1752 23.4601C32.493 23.0406 31.9793 22.3958 31.723 21.6375C31.4667 20.8792 31.4841 20.0553 31.7721 19.3084C32.0601 18.5616 32.6006 17.939 33.2998 17.5485C33.9991 17.1581 34.813 17.0244 35.6006 17.1706C36.3882 17.3168 37.0997 17.7337 37.6119 18.3491C38.1241 18.9645 38.4046 19.7395 38.4048 20.5399C38.4255 21.3943 38.1063 22.2221 37.5171 22.8418ZM45.2603 10.5192C42.577 7.79802 38.9132 6.6343 35.2589 6.6343C31.6032 6.6343 27.9368 7.79802 25.2549 10.5192C22.6416 13.1678 21.4217 16.8713 21.4217 20.6595C21.4217 24.4489 22.6416 28.1538 25.2549 30.8024C27.9354 33.5222 31.6005 34.6873 35.2589 34.6873C38.9159 34.6873 42.577 33.5222 45.2603 30.8037C47.8722 28.1538 49.0935 24.4503 49.0935 20.6595C49.0935 16.87 47.8722 13.1678 45.2603 10.5192ZM17.5481 24.8386C15.8198 24.8386 15.1137 24.3119 14.4748 23.5056C14.0592 22.9788 13.8534 22.2048 13.8534 21.201V16.5071H19.6543V8.095H13.8534V0H6.4425V3.02756C6.4425 6.37898 3.87088 9.09613 0.702085 9.09613C0.467374 9.09556 0.232914 9.08075 0 9.05178L0 16.5071H3.8924V24.0015C3.8924 26.9524 4.42771 29.2234 5.49832 30.7728C7.15266 33.1406 8.98453 34.6873 13.462 34.6873C16.0578 34.6873 18.2286 34.096 19.6543 33.3059V24.4906C18.9787 24.7313 18.2653 24.8492 17.5481 24.8386Z" fill="white"/>
</svg>
