<svg viewBox="0 0 128 128" xmlns="http://www.w3.org/2000/svg"><g fill="#E10098"><path d="M18.39 96.852l-4.6-2.657L65.43 5.91l4.6 2.657zm0 0"/><path d="M12.734 83.582l90.57-52.304 2.657 4.598-90.57 52.305zm0 0"/><path d="M59.266 120.797l-2.657-4.6 90.57-52.304 2.657 4.598zm0 0"/><path d="M109.602 96.852L57.96 8.566l4.599-2.657 51.641 88.286zm0 0"/><path d="M16.789 45.121l2.656-4.598 90.57 52.304-2.656 4.598zm0 0"/><path d="M64 121.203L64 10.8h5.313v110.403zm0 0"/><path d="M112.254 83.582L21.684 31.278l2.657-4.598 90.57 52.304zm0 0"/><path d="M81.707 92.58c-2.07 3.59-6.66 4.832-10.246 2.762-3.59-2.07-4.832-6.66-2.762-10.246 2.07-3.59 6.66-4.832 10.246-2.762 3.59 2.07 4.836 6.656 2.762 10.246zm0 0"/><path d="M23.734 39.133c-2.07 3.586-6.656 4.828-10.246 2.758-3.586-2.07-4.828-6.66-2.758-10.246 2.07-3.586 6.66-4.828 10.246-2.758 3.586 2.07 4.828 6.66 2.758 10.246zm0 0"/><path d="M23.734 88.867c-2.07-3.586-6.656-4.828-10.246-2.758-3.586 2.07-4.828 6.66-2.758 10.246 2.07 3.586 6.66 4.828 10.246 2.758 3.586-2.07 4.828-6.66 2.758-10.246zm0 0"/><path d="M104.27 39.133c-2.074-3.586-6.66-4.832-10.25-2.762-3.586 2.07-4.828 6.66-2.758 10.246 2.07 3.59 6.656 4.832 10.246 2.762 3.59-2.07 4.832-6.66 2.762-10.246zm0 0"/><path d="M64 17.535c-4.145 0-7.5 3.355-7.5 7.5s3.355 7.5 7.5 7.5 7.5-3.355 7.5-7.5-3.355-7.5-7.5-7.5zm0 0"/><path d="M64 95.465c-4.145 0-7.5 3.355-7.5 7.5s3.355 7.5 7.5 7.5 7.5-3.355 7.5-7.5-3.355-7.5-7.5-7.5zm0 0"/></g></svg>
