<svg viewBox="0 0 128 128" xmlns="http://www.w3.org/2000/svg"><path d="M63.724 110.725a2.15 2.15 0 01-1.283-.423l-20.476-11.851c-.635-.423-1.058-1.058-1.27-1.693l-5.133-22.168a2.152 2.152 0 01.212-1.693l11.745-20.687c.423-.635 1.058-1.058 1.693-1.27L71.98 45.69c.635-.212 1.27-.106 1.905.106l20.477 11.852c.635.423 1.058 1.058 1.27 1.693l5.239 22.274c.212.635.106 1.376-.212 1.905L88.914 104.1c-.423.635-1.058 1.058-1.693 1.27l-22.274 5.24c-.317.106-.74.106-1.164.106l-.06.01zm-19.418-14.51l18.36 10.581a.645.645 0 00.74 0l19.842-4.71a.645.645 0 00.423-.318l10.58-18.359a.605.605 0 000-.74l-4.71-19.842a.645.645 0 00-.317-.423L69.863 51.831a.645.645 0 00-.74 0l-19.842 4.71a.645.645 0 00-.423.317l-10.58 18.36a.605.605 0 000 .74l4.71 19.842c.106.211.211.317.317.423l.001-.008zm19.206-37.678a.423.423 0 01.211.53l-5.874 27.196a.423.423 0 01-.529.212l-24.023-9.1a.423.423 0 01-.212-.529l11.852-24.87a.423.423 0 01.529-.211l18.047 6.772zm2.328-.211a.423.423 0 01-.211.529l-5.874 27.196a.423.423 0 01-.529.212l-24.023-9.1a.423.423 0 01-.212-.53l11.852-24.87a.423.423 0 01.529-.211l18.469 6.773zm19.63-4.499a.423.423 0 01-.212.529l-18.042 6.772a.423.423 0 01-.53-.212l-6.772-18.042a.423.423 0 01.212-.529l18.042-6.772a.423.423 0 01.529.211l6.773 18.042v.001zm2.328-.212a.423.423 0 01-.212.529l-18.042 6.773a.423.423 0 01-.529-.212l-6.772-18.042a.423.423 0 01.211-.529l18.042-6.773a.423.423 0 01.53.212l6.772 18.042zm-19.418 26.773a.423.423 0 01-.211.53L43.247 90.321a.423.423 0 01-.529-.212l-6.772-18.042a.423.423 0 01.211-.529l24.87-11.852a.423.423 0 01.53.212l6.772 18.042a.48.48 0 01-.212.529l.001.004zm2.328-.211a.423.423 0 01-.211.529L43.246 90.321a.423.423 0 01-.529-.212l-6.772-18.042a.423.423 0 01.211-.529l24.87-11.852a.423.423 0 01.53.212l6.772 18.042c0 .211-.106.317-.211.423l-.001.004zm19.63-4.499a.423.423 0 01-.212.529L65.203 86.875a.423.423 0 01-.529-.212l-11.852-24.87a.423.423 0 01.212-.529l27.196-5.874a.423.423 0 01.529.211l9.1 24.023a.423.423 0 01-.212.529l.001.004zm2.329-.211a.423.423 0 01-.212.529L65.203 86.875a.423.423 0 01-.529-.212L52.822 61.793a.423.423 0 01.212-.529l27.196-5.874a.423.423 0 01.529.212l9.1 24.023a.423.423 0 01-.212.529l-.001-.001z" fill="#326CE5"/><path d="M63.936 68.777c-2.962 0-5.345 2.383-5.345 5.345s2.383 5.345 5.345 5.345 5.345-2.383 5.345-5.345-2.383-5.345-5.345-5.345z" fill="#326CE5"/><path d="M64.148 10.957c-1.058 0-2.117.953-2.117 2.01v1.376h4.235v-1.375c0-1.058-1.06-2.011-2.118-2.011zm-15.078 2.857c-1.059 0-2.117.952-2.117 2.01 0 .53.212 1.059.635 1.376l1.165.847 2.117-2.117-.635-1.058c-.318-.635-.847-.953-1.165-1.059zm29.95 0c-.423 0-.953.317-1.27.741l-.634 1.059 2.116 2.116 1.165-.847c.423-.317.635-.846.635-1.375 0-1.059-1.059-2.012-2.012-2.012l-.001.318zm-41.908 11.217c-1.058 0-2.117.953-2.117 2.011 0 .423.212.846.53 1.27l.74 1.058h2.965l-.423-2.858-.847-.423c-.212-.74-.53-1.058-.847-1.058h-.001zm54.08 0c-.423 0-.847.423-1.059.953l-.317.529-.423 2.858h2.858l.74-1.059c.318-.423.53-.846.53-1.27 0-1.058-1.058-2.01-2.01-2.01l-.319-.001zm-27.725 3.17c-.106 0-.212 0-.318.105h-.212c-.423 0-.74.106-1.058.317h-.106v-.105c-.318.105-.53.317-.74.528v.106a2.551 2.551 0 00-.318.529c-.106.211-.106.528-.106.74v.528c-.105 0-.105.106-.105.212 0 .105.105.317.105.423v1.058h.106v.106c.106.423.212.74.423 1.058v.105c.212.318.424.53.741.741h.105c.106 0 .106.106.212.106.53.106 1.058 0 1.587-.211h.106c.105 0 .105-.106.21-.106h.106l.53-.529v-.105a2.551 2.551 0 00.317-.529c.106-.211.106-.423.106-.74v-.318c0-.105.106-.21.106-.317v-.105-.106c0-.317-.106-.634-.212-.952v-.106c-.106-.211-.317-.423-.423-.635-.106-.105-.212-.21-.318-.317h-.105c-.106-.105-.212-.105-.423-.105zm-13.386.106c-.105 0-.317.106-.423.211a2.91 2.91 0 00-.635.635c-.105.106-.105.317-.211.423 0 .212-.106.317-.106.529v.211c0 .74.317 1.376.847 1.905.53.53 1.164.742 1.905.742.211 0 .423 0 .634-.106.106 0 .318-.105.424-.105h.105c.212-.106.424-.212.53-.318h.106c.212-.105.318-.317.424-.423l-.423-.423-.318-.317-.105-.106-.212-.211-.211-.212-.211-.211h-1.059a1.3 1.3 0 00-.423.105c-.105 0-.317.106-.423.106h-.106c-.105 0-.21.105-.317.105-.105.106-.211.106-.317.318v-.106c-.106-.106-.212-.318-.212-.424v-.423c0-.105.106-.211.106-.317.105-.211.317-.317.423-.423h.106c.105 0 .317-.105.423-.105h.529c.105 0 .317 0 .423.105l.317.317.635-.635c.105-.105.105-.211.105-.317 0-.105-.105-.105-.105-.211-.212-.106-.318-.212-.53-.212h-.105c-.212-.105-.53-.105-.741-.105zm26.772 0c-.105 0-.317 0-.423.106h-.105c-.106 0-.318.105-.424.211h-.105c-.106.106-.212.212-.318.318-.105.105-.21.211-.317.317v.105a2.764 2.764 0 00-.317.529c0 .106-.106.317-.106.423 0 .317 0 .635.106.952v.106c.105.211.211.423.317.635.106.105.212.317.317.423h.106c.211.105.317.317.529.317.317.106.635.106.952.106.106 0 .318 0 .424-.106.211-.106.528-.211.74-.317.211-.106.317-.212.423-.423l-.423-.423-.317-.317-.106-.106-.211-.211-.212-.211-.211-.212h-1.058a1.3 1.3 0 00-.423.106c-.106 0-.317.106-.423.106h-.212a.616.616 0 00-.317.211c-.106.106-.212.212-.212.318v-.318c0-.105-.105-.317-.105-.423v-.106c0-.105.105-.21.105-.317.106-.211.212-.317.424-.423.105 0 .316-.105.422-.105h.53c.105 0 .316 0 .422.105l.317.317.635-.635c.106-.105.106-.211.106-.317s-.106-.106-.106-.211c-.105-.106-.316-.212-.528-.212h-.106c-.106-.105-.317-.105-.529-.105zm-13.386 2.01c.212.212.53.424.741.53.212 0 .318.105.53.105h.634c.212 0 .318-.105.53-.105.212-.106.529-.318.74-.53l-.74-.846c-.105.317-.317.423-.53.423-.211 0-.423-.106-.528-.423l-.741.846h-.636zm-54.08 9.206c-.423 0-.847.317-1.059.953l-.74 1.058.423 2.858h2.857l.74-1.058c.317-.423.53-.847.53-1.27 0-1.058-1.06-2.011-2.117-2.011l-.634-.53zm55.35 0c-1.058 0-2.01.953-2.01 2.011 0 .423.211.846.529 1.27l.74 1.058h2.858l.423-2.858-.74-1.058c-.318-.636-.741-.953-1.059-.953l-.742.53zm-42.12 11.005c-.423 0-.953.318-1.27.741l-.635 1.059 2.117 2.117 1.164-.847c.423-.317.635-.846.635-1.376 0-1.058-1.059-2.01-2.011-2.01v.317zm29.95 0c-1.059 0-2.116.953-2.116 2.011 0 .53.211 1.059.634 1.376l1.165.847 2.116-2.117-.635-1.059c-.423-.423-.846-.741-1.164-.741v-.317zm-14.975 3.064c-1.059 0-2.117.953-2.117 2.011v1.376h4.234v-1.376c0-1.058-1.058-2.01-2.117-2.01z" fill="#326CE5"/></svg>
