<svg xmlns="http://www.w3.org/2000/svg" viewBox="0 0 128 128"><path d="M93.809 92.112c.785-6.533.55-7.492 5.416-6.433l1.235.108c3.742.17 8.637-.602 11.513-1.938 6.191-2.873 9.861-7.668 3.758-6.409-13.924 2.873-14.881-1.842-14.881-1.842 14.703-21.815 20.849-49.508 15.543-56.287-14.47-18.489-39.517-9.746-39.936-9.52l-.134.025c-2.751-.571-5.83-.912-9.289-.968-6.301-.104-11.082 1.652-14.709 4.402 0 0-44.683-18.409-42.604 23.151.442 8.841 12.672 66.898 27.26 49.362 5.332-6.412 10.484-11.834 10.484-11.834 2.558 1.699 5.622 2.567 8.834 2.255l.249-.212c-.078.796-.044 1.575.099 2.497-3.757 4.199-2.653 4.936-10.166 6.482-7.602 1.566-3.136 4.355-.221 5.084 3.535.884 11.712 2.136 17.238-5.598l-.22.882c1.474 1.18 1.375 8.477 1.583 13.69.209 5.214.558 10.079 1.621 12.948 1.063 2.868 2.317 10.256 12.191 8.14 8.252-1.764 14.561-4.309 15.136-27.985"/><path d="M75.458 125.256c-4.367 0-7.211-1.689-8.938-3.32-2.607-2.46-3.641-5.629-4.259-7.522l-.267-.79c-1.244-3.358-1.666-8.193-1.916-14.419-.038-.935-.064-1.898-.093-2.919-.021-.747-.047-1.684-.085-2.664a18.8 18.8 0 01-4.962 1.568c-3.132.512-6.422.25-9.208-.771-3.021-1.108-5.113-3.274-5.88-6.097-.068-.252-.353-1.497.566-3.105.484-.842 1.25-1.725 2.36-2.708 2.43-2.166 6.8-3.424 11.947-3.424 1.617 0 3.198.12 4.72.364.297.048.637.105 1.024.174.577.103 1.229.22 1.865.295-.437-2.617-1.081-6.689-.128-10.028.399-1.429 1.945-4.708 5.058-7.027 2.942-2.192 6.809-3.306 11.494-3.306.345 0 .688.023 1.023.045 4.392-2.732 7.771-3.996 12.697-3.996 4.401 0 9.942 1.031 15.845 5.96 5.478 4.577 9.946 10.972 9.946 16.673 0 5.261-2.16 9.403-4.633 13.627l-.385.666c-1.498 2.603-1.904 3.383-1.904 5.179 0 1.895 1.278 3.782 3.853 5.646.521.378 1.113.806 1.184 1.749.065.877-.398 1.593-1.376 2.131-3.571 1.97-7.347 3.294-11.212 3.956-1.37.234-2.698.352-3.951.352-5.002-.001-8.584-1.896-10.607-5.641-1.082-2.007-1.276-3.292-1.276-4.295 0-1.241.303-2.245.582-3.149.131-.424.252-.818.352-1.227.364-1.492.542-3.096.539-4.951-.006-2.803-.494-5.901-1.43-9.268a73.794 73.794 0 00-1.734-5.612 72.212 72.212 0 01-1.525-5.285 90.846 90.846 0 01-.834-3.691c-.1-.509-.21-1.05-.327-1.633-1.7.182-2.744.514-3.45.805-.341.141-.678.268-1.024.389-.252.087-.515.177-.787.268-1.787.608-3.892 1.544-6.287 2.644-2.282 1.05-3.891 1.699-5.122 2.064-1.068.316-1.791.405-2.304.405-.458-.001-1.05-.12-1.775-.354-.957-.313-1.755-.899-2.37-1.741-.763-1.048-1.114-2.361-1.042-3.92.091-1.921.851-4.073 2.262-6.41a36.571 36.571 0 012.213-3.244 63.566 63.566 0 015.225-6.324 10.606 10.606 0 00-.654-1.793 8.192 8.192 0 00-5.306-4.438 7.72 7.72 0 00-2.273-.338c-2.527 0-5.008 1.212-7.187 3.514-2.315 2.445-4.525 6.376-6.149 10.966-1.789 5.061-2.333 9.265-1.748 13.516.382 2.76 1.215 5.114 2.424 6.833 2.145 3.044 5.527 4.051 9.285 4.18.146.005.295.008.443.008h.016c1.553 0 3.1-.276 4.61-.818 2.099-.756 4.101-2.145 5.356-3.727.151-.188.4-.313.662-.313.142 0 .27.038.384.105.229.133.369.406.347.674-.025.297-.282 4.432-1.269 6.943-.774 1.97-1.939 3.206-3.584 3.792-.973.347-2.183.522-3.595.522-1.277 0-2.627-.124-4.008-.368-1.648-.292-3.238-.745-4.7-1.174a35.974 35.974 0 01-1.986-.622c-.628 4.611-1.184 8.878-1.417 12.729-.42.693-.097 1.471-.171 2.341-.291 3.409-.786 9.176-3.321 13.845-2.201 4.073-5.812 6.925-10.709 8.474-.437.139-.891.278-1.369.414-2.657.755-6.007 1.696-10.276 1.696zm-38.252-52.897c-4.586 0-8.296 1.057-10.323 2.86-.936.835-1.574 1.561-1.903 2.143-.38.67-.346.937-.325.98.363 1.334 1.637 2.542 3.629 3.297 2.312.847 5.135 1.08 7.845.644 3.388-.546 5.938-1.846 7.379-3.758.696-.922 1.216-2.069 1.817-3.831-1.121-.395-2.264-.591-3.405-.591a22.883 22.883 0 00-4.714.256zm76.842-2.462c-2.25 1.933-3.432 5.419-3.432 10.097 0 2.04.209 3.794.617 5.193.158.548.356 1.067.588 1.538.45-.425.907-1.21 1.545-2.575.886-1.894 1.751-3.764 2.58-5.548 2.134-4.588 3.815-8.204 3.914-11.831-1.954.759-3.771 1.637-5.812 3.126zm-43.675 10.452c-2.757 0-3.483 2.348-3.67 3.304-.093.475-.21 1.069-.334 1.709-.072.37-.155.8-.246 1.264-.286 1.473-.616 3.134-.878 4.675a90.483 90.483 0 01-1.081 5.244c-1.896 7.447-1.994 10.393-.447 13.426 1.429 2.809 4.281 4.226 8.494 4.226 1.029 0 2.131-.097 3.282-.288 3.415-.574 6.812-1.729 10.03-3.428.199-.105.262-.237.264-.256.006-.067-.032-.181-.211-.289-2.895-2.104-4.543-4.57-4.543-6.793 0-2.322.501-3.324 2.182-6.289l.385-.665c2.299-3.954 4.322-7.422 4.322-12.066 0-4.624-3.773-10.11-8.486-14.043-3.451-2.879-7.7-4.801-12.149-5.515-4.349-.695-8.438.592-11.534 3.615-2.304 2.254-3.535 4.78-3.727 7.633-.05.752-.03 1.497.063 2.219.7.216.191.46.356.668.457.58 1.349.878 2.82.878 1.227 0 2.486-.273 2.786-.326l.813-.142.045 1.033c.054 1.234-.022 2.931-.766 4.315-.15.28-.29.532-.432.753 1.781.638 3.533.978 5.212.978 6.169.001 9.562-3.349 10.549-10.481a19.89 19.89 0 00-.108-6.989 17.286 17.286 0 00-.56-2.22 7.14 7.14 0 00-1.001-2.079c.146.018.299.028.457.028 1.166 0 2.765-.287 4.83-1.996.586-.482.896-1.092.937-1.826.042-.757-.252-1.422-.87-1.975-1.202-1.075-3.812-1.639-7.441-1.621-.507.002-1.026.017-1.552.048-1.099.062-2.204.228-3.336.507-.654.161-1.271.34-1.856.526-1.507.48-3.065.975-4.916 1.133-.908.078-1.855.118-2.834.118-3.581 0-6.89-.584-9.237-1.643-3.812-1.72-5.926-4.822-5.926-8.71 0-2.923 1.213-5.599 3.416-7.525 3.08-2.695 8.251-3.876 13.07-2.975 5.727 1.072 10.39 4.608 12.283 9.334 1.142 2.846 1.166 5.712.069 8.127-.961 2.109-2.849 3.571-5.302 4.102-2.854.615-5.163-.102-6.058-1.881-1.116-2.221-.297-5.798 1.217-8.361 1.27-2.149 2.144-2.984 2.155-3 .258-.413.259-1.17-.289-1.513-.434-.271-.93-.183-1.312.129-.079.06-7.364 5.679-8.772 13.093-.41 1.187-.704 2.599-.704 4.194 0 3.388 1.347 6.658 3.8 9.211 2.72 2.832 6.533 4.399 10.728 4.399 3.494 0 6.853-.966 9.477-2.722 3.088-2.066 5.086-5.074 5.629-8.487.781-4.912-1.045-10.264-5.016-14.694-4.2-4.697-10.579-7.848-17.594-8.681a25.58 25.58 0 00-3.297-.214c-5.988 0-11.864 1.958-16.213 5.414-4.978 3.957-7.91 9.502-7.91 14.912 0 5.93 3.225 11.197 8.82 14.414 3.887 2.234 8.904 3.424 14.796 3.504 4.12.06 7.451-.414 8.505-.554 2.148-.284 4.359-.776 7.539-1.683 2.98-.85 6.232-1.957 9.818-3.321l1.248-.479c.139-.053.387-.153.608-.237.295-.114.602-.232.903-.34.269-.097.513-.178.721-.237.638-.186 1.178-.248 1.691-.248 1.374 0 2.261.444 2.84 1.421.588.989.711 2.63.365 4.881-1.773 11.504-8.954 14.458-15.84 14.606-.595.013-1.219.019-1.87.019-4.037 0-8.737-.376-12.526-1.657-.07 1.137-.168 2.227-.267 3.268-.071.756-.142 1.499-.201 2.243 4.167 1.169 9.056 1.542 13.587 1.542.688 0 1.369-.009 2.04-.028 8.988-.249 17.523-4.613 19.699-18.75.535-3.463-.016-5.973-1.565-7.173z"/></svg>
