<svg width="20" height="20" viewBox="0 0 24 24" fill="none" xmlns="http://www.w3.org/2000/svg">
<path d="M12.012 2C6.48102 2 2.00002 6.481 2.00002 12.014C1.99902 13.79 2.52502 15.529 3.51502 17.024L2.00002 22L7.10802 20.517C8.56102 21.437 10.2584 21.925 12.012 21.924H12.019C17.549 21.924 22.029 17.443 22.029 11.91C22.029 9.246 20.987 6.736 19.072 4.821C17.158 2.906 14.648 1.863 12.012 2Z" fill="#00E676"/>
<path d="M19.071 4.821C17.156 2.906 14.647 1.863 12.011 2C6.481 2 2 6.481 2 12.014C1.999 13.79 2.525 15.529 3.515 17.024L2 22L7.108 20.517C8.561 21.437 10.258 21.925 12.012 21.924H12.019C17.549 21.924 22.029 17.443 22.029 11.91C22.029 9.246 20.987 6.736 19.071 4.821ZM12.019 20.15H12.013C10.497 20.151 9.013 19.707 7.747 18.87L7.441 18.686L4.453 19.434L5.213 16.516L5.008 16.198C4.101 14.892 3.625 13.366 3.626 11.815C3.626 7.335 7.335 3.626 11.814 3.626C13.979 3.627 16.025 4.472 17.572 6.019C19.119 7.566 19.964 9.612 19.963 11.777C19.963 16.257 16.254 20.15 12.019 20.15ZM16.238 13.794C16.016 13.683 14.926 13.147 14.725 13.071C14.524 12.995 14.378 12.957 14.233 13.179C14.088 13.401 13.672 13.901 13.546 14.047C13.42 14.193 13.294 14.211 13.072 14.1C12.85 13.989 12.097 13.735 11.194 12.931C10.496 12.307 10.014 11.538 9.888 11.316C9.762 11.094 9.874 10.975 9.985 10.864C10.084 10.765 10.207 10.604 10.318 10.478C10.429 10.352 10.467 10.264 10.543 10.118C10.619 9.972 10.581 9.846 10.525 9.735C10.469 9.624 10.014 8.534 9.832 8.09C9.654 7.658 9.474 7.716 9.342 7.709C9.218 7.702 9.072 7.701 8.927 7.701C8.782 7.701 8.541 7.757 8.34 7.979C8.139 8.201 7.565 8.737 7.565 9.827C7.565 10.917 8.359 11.969 8.47 12.115C8.581 12.261 10.014 14.465 12.237 15.431C12.773 15.687 13.191 15.836 13.515 15.944C14.051 16.118 14.538 16.094 14.923 16.037C15.355 15.973 16.237 15.449 16.418 14.882C16.599 14.315 16.599 13.831 16.543 13.739C16.487 13.647 16.341 13.591 16.119 13.48L16.238 13.794Z" fill="white"/>
</svg>
